<svg xmlns="http://www.w3.org/2000/svg" xmlns:xlink="http://www.w3.org/1999/xlink" xmlns:lucid="lucid" width="640" height="160"><g transform="translate(-280 -120)" lucid:page-tab-id="0_0"><path d="M300 145c0-2.76 2.24-5 5-5h150c2.76 0 5 2.24 5 5v110c0 2.76-2.24 5-5 5H305c-2.76 0-5-2.24-5-5z" stroke="#000" stroke-width="2" fill="#fff"/><use xlink:href="#a" transform="matrix(1,0,0,1,320,140) translate(25.549999999999997 63.6)"/><path d="M520 145c0-2.76 2.24-5 5-5h150c2.76 0 5 2.24 5 5v110c0 2.76-2.24 5-5 5H525c-2.76 0-5-2.24-5-5z" stroke="#000" stroke-width="2" fill="#fff"/><use xlink:href="#b" transform="matrix(1,0,0,1,540,140) translate(25.549999999999997 52.8)"/><use xlink:href="#c" transform="matrix(1,0,0,1,540,140) translate(11.599999999999994 74.4)"/><path d="M518 200h-38.5" stroke="#000" stroke-width="2" fill="none"/><path d="M519 201h-1.03v-2H519z"/><path d="M464.24 200l14.26-4.64v9.28z" stroke="#000" stroke-width="2"/><path d="M740 145c0-2.76 2.24-5 5-5h150c2.76 0 5 2.24 5 5v110c0 2.76-2.24 5-5 5H745c-2.76 0-5-2.24-5-5z" stroke="#000" stroke-width="2" fill="#fff"/><use xlink:href="#d" transform="matrix(1,0,0,1,760,140) translate(11.599999999999994 63.6)"/><path d="M738 200h-38.5" stroke="#000" stroke-width="2" fill="none"/><path d="M739 201h-1.03v-2H739z"/><path d="M684.24 200l14.26-4.64v9.28z" stroke="#000" stroke-width="2"/><defs><path d="M30-248c87 1 191-15 191 75 0 78-77 80-158 76V0H30v-248zm33 125c57 0 124 11 124-50 0-59-68-47-124-48v98" id="e"/><path d="M114-163C36-179 61-72 57 0H25l-1-190h30c1 12-1 29 2 39 6-27 23-49 58-41v29" id="f"/><path d="M100-194c62-1 85 37 85 99 1 63-27 99-86 99S16-35 15-95c0-66 28-99 85-99zM99-20c44 1 53-31 53-75 0-43-8-75-51-75s-53 32-53 75 10 74 51 75" id="g"/><path d="M85-194c31 0 48 13 60 33l-1-100h32l1 261h-30c-2-10 0-23-3-31C134-8 116 4 85 4 32 4 16-35 15-94c0-66 23-100 70-100zm9 24c-40 0-46 34-46 75 0 40 6 74 45 74 42 0 51-32 51-76 0-42-9-74-50-73" id="h"/><path d="M84 4C-5 8 30-112 23-190h32v120c0 31 7 50 39 49 72-2 45-101 50-169h31l1 190h-30c-1-10 1-25-2-33-11 22-28 36-60 37" id="i"/><path d="M59-47c-2 24 18 29 38 22v24C64 9 27 4 27-40v-127H5v-23h24l9-43h21v43h35v23H59v120" id="j"/><g id="a"><use transform="matrix(0.05,0,0,0.05,0,0)" xlink:href="#e"/><use transform="matrix(0.05,0,0,0.05,12,0)" xlink:href="#f"/><use transform="matrix(0.05,0,0,0.05,17.95,0)" xlink:href="#g"/><use transform="matrix(0.05,0,0,0.05,27.950000000000003,0)" xlink:href="#h"/><use transform="matrix(0.05,0,0,0.05,37.95,0)" xlink:href="#i"/><use transform="matrix(0.05,0,0,0.05,47.95,0)" xlink:href="#j"/><use transform="matrix(0.05,0,0,0.05,52.95,0)" xlink:href="#g"/><use transform="matrix(0.05,0,0,0.05,62.95,0)" xlink:href="#f"/></g><g id="b"><use transform="matrix(0.05,0,0,0.05,0,0)" xlink:href="#e"/><use transform="matrix(0.05,0,0,0.05,12,0)" xlink:href="#f"/><use transform="matrix(0.05,0,0,0.05,17.95,0)" xlink:href="#g"/><use transform="matrix(0.05,0,0,0.05,27.950000000000003,0)" xlink:href="#h"/><use transform="matrix(0.05,0,0,0.05,37.95,0)" xlink:href="#i"/><use transform="matrix(0.05,0,0,0.05,47.95,0)" xlink:href="#j"/><use transform="matrix(0.05,0,0,0.05,52.95,0)" xlink:href="#g"/><use transform="matrix(0.05,0,0,0.05,62.95,0)" xlink:href="#f"/></g><path d="M212-179c-10-28-35-45-73-45-59 0-87 40-87 99 0 60 29 101 89 101 43 0 62-24 78-52l27 14C228-24 195 4 139 4 59 4 22-46 18-125c-6-104 99-153 187-111 19 9 31 26 39 46" id="k"/><path d="M117-194c89-4 53 116 60 194h-32v-121c0-31-8-49-39-48C34-167 62-67 57 0H25l-1-190h30c1 10-1 24 2 32 11-22 29-35 61-36" id="l"/><path d="M135-143c-3-34-86-38-87 0 15 53 115 12 119 90S17 21 10-45l28-5c4 36 97 45 98 0-10-56-113-15-118-90-4-57 82-63 122-42 12 7 21 19 24 35" id="m"/><path d="M210-169c-67 3-38 105-44 169h-31v-121c0-29-5-50-35-48C34-165 62-65 56 0H25l-1-190h30c1 10-1 24 2 32 10-44 99-50 107 0 11-21 27-35 58-36 85-2 47 119 55 194h-31v-121c0-29-5-49-35-48" id="n"/><path d="M24-231v-30h32v30H24zM24 0v-190h32V0H24" id="o"/><g id="c"><use transform="matrix(0.05,0,0,0.05,0,0)" xlink:href="#k"/><use transform="matrix(0.05,0,0,0.05,12.950000000000001,0)" xlink:href="#g"/><use transform="matrix(0.05,0,0,0.05,22.950000000000003,0)" xlink:href="#l"/><use transform="matrix(0.05,0,0,0.05,32.95,0)" xlink:href="#m"/><use transform="matrix(0.05,0,0,0.05,41.95,0)" xlink:href="#i"/><use transform="matrix(0.05,0,0,0.05,51.95,0)" xlink:href="#n"/><use transform="matrix(0.05,0,0,0.05,66.9,0)" xlink:href="#o"/><use transform="matrix(0.05,0,0,0.05,70.85000000000001,0)" xlink:href="#h"/><use transform="matrix(0.05,0,0,0.05,80.85000000000001,0)" xlink:href="#g"/><use transform="matrix(0.05,0,0,0.05,90.85000000000001,0)" xlink:href="#f"/></g><g id="d"><use transform="matrix(0.05,0,0,0.05,0,0)" xlink:href="#k"/><use transform="matrix(0.05,0,0,0.05,12.950000000000001,0)" xlink:href="#g"/><use transform="matrix(0.05,0,0,0.05,22.950000000000003,0)" xlink:href="#l"/><use transform="matrix(0.05,0,0,0.05,32.95,0)" xlink:href="#m"/><use transform="matrix(0.05,0,0,0.05,41.95,0)" xlink:href="#i"/><use transform="matrix(0.05,0,0,0.05,51.95,0)" xlink:href="#n"/><use transform="matrix(0.05,0,0,0.05,66.9,0)" xlink:href="#o"/><use transform="matrix(0.05,0,0,0.05,70.85000000000001,0)" xlink:href="#h"/><use transform="matrix(0.05,0,0,0.05,80.85000000000001,0)" xlink:href="#g"/><use transform="matrix(0.05,0,0,0.05,90.85000000000001,0)" xlink:href="#f"/></g></defs></g></svg>