<svg xmlns="http://www.w3.org/2000/svg" xmlns:xlink="http://www.w3.org/1999/xlink" xmlns:lucid="lucid" width="1100" height="440"><g transform="translate(-180 -60)" lucid:page-tab-id="0_0"><path d="M280 205c0-2.76 2.24-5 5-5h150c2.76 0 5 2.24 5 5v110c0 2.76-2.24 5-5 5H285c-2.76 0-5-2.24-5-5z" stroke="#000" stroke-width="2" fill="#fff"/><use xlink:href="#a" transform="matrix(1,0,0,1,300,200) translate(9.574999999999996 63.6)"/><use xlink:href="#b" transform="matrix(1,0,0,1,300,200) translate(40.52499999999999 63.6)"/><path d="M540 105c0-2.76 2.24-5 5-5h150c2.76 0 5 2.24 5 5v110c0 2.76-2.24 5-5 5H545c-2.76 0-5-2.24-5-5z" stroke="#000" stroke-width="2" fill="#fff"/><use xlink:href="#c" transform="matrix(1,0,0,1,560,100) translate(34.074999999999996 52.8)"/><use xlink:href="#d" transform="matrix(1,0,0,1,560,100) translate(25.049999999999997 74.4)"/><path d="M800 105c0-2.76 2.24-5 5-5h150c2.76 0 5 2.24 5 5v110c0 2.76-2.24 5-5 5H805c-2.76 0-5-2.24-5-5z" stroke="#000" stroke-width="2" fill="#fff"/><use xlink:href="#e" transform="matrix(1,0,0,1,820,100) translate(33.05 52.8)"/><use xlink:href="#d" transform="matrix(1,0,0,1,820,100) translate(25.049999999999997 74.4)"/><path d="M458.54 254.94l1.23-.8 1.6-1.16 1.65-1.33 1.74-1.53 1.84-1.8 1.97-2.14 2.15-2.58 2.4-3.2 2.8-4.14 3.5-5.8 5.5-10.2 15.65-30.73 3.5-5.8 2.8-4.12 2.4-3.2 2.16-2.58 1.97-2.13 1.84-1.82 1.74-1.53 1.65-1.33 1.6-1.16 1.56-1 1.5-.9 1.5-.76 1.5-.67 1.5-.6 1.5-.5 1.5-.42 1.55-.35 1.58-.28 1.62-.2 1.7-.13.75-.02" stroke="#000" stroke-width="2" fill="none"/><path d="M444.1 259.1l12.43-8.4 2.57 8.9z" stroke="#000" stroke-width="2"/><path d="M539 161h-1.03v-2H539z"/><path d="M719.5 160H798" stroke="#000" stroke-width="2" fill="none"/><path d="M704.24 160l14.26-4.64v9.28z" stroke="#000" stroke-width="2"/><path d="M799 161h-1.03v-2H799z"/><path d="M540 165c0-2.76 2.24-5 5-5h150c2.76 0 5 2.24 5 5v110c0 2.76-2.24 5-5 5H545c-2.76 0-5-2.24-5-5z" stroke="#000" stroke-width="2" fill="#fff"/><use xlink:href="#c" transform="matrix(1,0,0,1,560,160) translate(34.074999999999996 52.8)"/><use xlink:href="#d" transform="matrix(1,0,0,1,560,160) translate(25.049999999999997 74.4)"/><path d="M540 225c0-2.76 2.24-5 5-5h150c2.76 0 5 2.24 5 5v110c0 2.76-2.24 5-5 5H545c-2.76 0-5-2.24-5-5z" stroke="#000" stroke-width="2" fill="#fff"/><use xlink:href="#c" transform="matrix(1,0,0,1,560,220) translate(34.074999999999996 52.8)"/><use xlink:href="#d" transform="matrix(1,0,0,1,560,220) translate(25.049999999999997 74.4)"/><path d="M459.32 257.77l2.66-.77 2.8-.96 2.76-1.1 2.76-1.3 2.84-1.5 3.04-1.8 3.5-2.32 4.84-3.62 15.8-12.42 3.5-2.32 3.04-1.8 2.84-1.5 2.76-1.3 2.76-1.1 2.8-.96 2.9-.84 3.07-.7 3.25-.6 3.54-.46 3.87-.3 3.33-.08" stroke="#000" stroke-width="2" fill="none"/><path d="M444.2 259.6l13.6-6.32 1.14 9.2z" stroke="#000" stroke-width="2"/><path d="M539 221h-1.03v-2H539z"/><path d="M459.46 262.43l3.25.4 5.34.97 5.07 1.2 5.34 1.53 7.8 2.72 15.32 5.56 5.33 1.55 5.06 1.18 5.33.96 5.96.75 7.03.54 7.7.18" stroke="#000" stroke-width="2" fill="none"/><path d="M444.23 261.52l14.52-3.78-.55 9.26z" stroke="#000" stroke-width="2"/><path d="M539 279v2h-1.03v-2z"/><path d="M540 285c0-2.76 2.24-5 5-5h150c2.76 0 5 2.24 5 5v110c0 2.76-2.24 5-5 5H545c-2.76 0-5-2.24-5-5z" stroke="#000" stroke-width="2" fill="#fff"/><use xlink:href="#c" transform="matrix(1,0,0,1,560,280) translate(34.074999999999996 52.8)"/><use xlink:href="#d" transform="matrix(1,0,0,1,560,280) translate(25.049999999999997 74.4)"/><path d="M458.84 264.2l1.26.67 1.8 1.07 1.82 1.22 1.9 1.4 1.97 1.62 2.08 1.92 2.26 2.28 2.5 2.82 2.92 3.63 3.72 5.15 7.82 12.23 10.02 15.82 3.72 5.15 2.9 3.63 2.52 2.82 2.26 2.28 2.1 1.92 1.97 1.62 1.88 1.4 1.83 1.22 1.8 1.07 1.78.93 1.76.82 1.78.7 1.8.63 1.82.54 1.87.43 1.94.35 2.02.26 2.1.16 1.24.03" stroke="#000" stroke-width="2" fill="none"/><path d="M444.15 260.74l14.95-1.23-2.13 9.03z" stroke="#000" stroke-width="2"/><path d="M539 339v2h-1.03v-2z"/><path d="M540 345c0-2.76 2.24-5 5-5h150c2.76 0 5 2.24 5 5v110c0 2.76-2.24 5-5 5H545c-2.76 0-5-2.24-5-5z" stroke="#000" stroke-width="2" fill="#fff"/><use xlink:href="#c" transform="matrix(1,0,0,1,560,340) translate(34.074999999999996 52.8)"/><use xlink:href="#d" transform="matrix(1,0,0,1,560,340) translate(25.049999999999997 74.4)"/><path d="M800 165c0-2.76 2.24-5 5-5h150c2.76 0 5 2.24 5 5v110c0 2.76-2.24 5-5 5H805c-2.76 0-5-2.24-5-5z" stroke="#000" stroke-width="2" fill="#fff"/><use xlink:href="#e" transform="matrix(1,0,0,1,820,160) translate(33.05 52.8)"/><use xlink:href="#d" transform="matrix(1,0,0,1,820,160) translate(25.049999999999997 74.4)"/><path d="M800 225c0-2.76 2.24-5 5-5h150c2.76 0 5 2.24 5 5v110c0 2.76-2.24 5-5 5H805c-2.76 0-5-2.24-5-5z" stroke="#000" stroke-width="2" fill="#fff"/><use xlink:href="#e" transform="matrix(1,0,0,1,820,220) translate(33.05 52.8)"/><use xlink:href="#d" transform="matrix(1,0,0,1,820,220) translate(25.049999999999997 74.4)"/><path d="M800 285c0-2.76 2.24-5 5-5h150c2.76 0 5 2.24 5 5v110c0 2.76-2.24 5-5 5H805c-2.76 0-5-2.24-5-5z" stroke="#000" stroke-width="2" fill="#fff"/><use xlink:href="#e" transform="matrix(1,0,0,1,820,280) translate(33.05 52.8)"/><use xlink:href="#d" transform="matrix(1,0,0,1,820,280) translate(25.049999999999997 74.4)"/><path d="M800 345c0-2.76 2.24-5 5-5h150c2.76 0 5 2.24 5 5v110c0 2.76-2.24 5-5 5H805c-2.76 0-5-2.24-5-5z" stroke="#000" stroke-width="2" fill="#fff"/><use xlink:href="#e" transform="matrix(1,0,0,1,820,340) translate(33.05 52.8)"/><use xlink:href="#d" transform="matrix(1,0,0,1,820,340) translate(25.049999999999997 74.4)"/><path d="M457.9 266.53l.4.33 1.18 1.08 1.25 1.22 1.3 1.4 1.4 1.62 1.5 1.9 1.63 2.23 1.78 2.7 1.98 3.26 2.25 4.1 2.66 5.37 3.33 7.52 4.98 12.67 17.9 48.83 3.33 7.52 2.66 5.36 2.25 4.1 1.98 3.28 1.78 2.7 1.62 2.22 1.5 1.9 1.4 1.62 1.3 1.4 1.26 1.22 1.2 1.08 1.13.94 1.1.84 1.07.74 1.03.66 1.02.58 1 .52.98.47.98.4.96.36.96.3.97.28.97.23 1 .2 1 .14 1 .1 1.04.08h.06" stroke="#000" stroke-width="2" fill="none"/><path d="M444.02 261.17L459 262l-3.35 8.64z" stroke="#000" stroke-width="2"/><path d="M539 399v2h-1.03v-2z"/><path d="M719.1 163.26l1.44.6 2.12.97 2.12 1.1 2.15 1.3 2.2 1.46 2.33 1.7 2.48 2.06 2.78 2.53 3.32 3.36 4.87 5.5 15.06 17.78 3.32 3.37 2.78 2.54 2.48 2.05 2.32 1.7 2.2 1.48 2.16 1.28 2.12 1.1 2.12 1 2.13.85 2.17.76 2.23.65 2.32.55 2.43.44 2.57.32 2.74.2 1.94.05" stroke="#000" stroke-width="2" fill="none"/><path d="M704.2 160.57l14.85-2.02-1.65 9.12z" stroke="#000" stroke-width="2"/><path d="M799 219v2h-1.03v-2z"/><path d="M718.22 165.84l1.04.78 1.25 1.05 1.32 1.17 1.38 1.35 1.44 1.53 1.54 1.8 1.66 2.08 1.8 2.5 2 3 2.28 3.77 2.67 4.88 3.4 6.88 5.56 12.6L760 243.37l3.4 6.88 2.68 4.88 2.27 3.76 2 3 1.8 2.5 1.67 2.08 1.54 1.8 1.44 1.53 1.38 1.36 1.3 1.17 1.26 1.05 1.22.92 1.18.82 1.15.73 1.12.65 1.1.58 1.1.52 1.1.46 1.1.4 1.1.36 1.1.3 1.1.27 1.13.2 1.14.18 1.16.12 1.2.07h.24" stroke="#000" stroke-width="2" fill="none"/><path d="M704.07 161.04l15 .2-2.98 8.77z" stroke="#000" stroke-width="2"/><path d="M799 279v2h-1.03v-2z"/><path d="M717.25 167.72l1.05 1.12 1.2 1.38 1.28 1.62 1.4 1.9 1.5 2.3 1.66 2.75 1.86 3.38 2.12 4.28 2.48 5.57 3 7.62 3.97 11.45 7.1 23.86 15.36 53.94 3.97 11.45 3 7.62 2.48 5.57 2.12 4.28 1.86 3.4 1.66 2.75 1.5 2.28 1.4 1.9 1.28 1.63 1.2 1.38 1.12 1.2 1.07 1.04 1 .9.96.8.93.72.88.62.87.55.85.48.82.43.8.4.8.33.8.3.8.25.77.22.78.18.78.15.8.12.8.08.64.04" stroke="#000" stroke-width="2" fill="none"/><path d="M703.92 161.4l14.88 1.92-3.98 8.38z" stroke="#000" stroke-width="2"/><path d="M799 339v2h-1.03v-2z"/><path d="M716.35 169.1l.4.52 1.16 1.6 1.27 1.9 1.4 2.3 1.55 2.83 1.75 3.54 2.02 4.53 2.35 6 2.87 8.24 3.66 12.2 5.34 21.03 25.1 113.42 3.66 12.2 2.87 8.26 2.36 6 2.03 4.53 1.75 3.55 1.55 2.83 1.4 2.3 1.26 1.9 1.15 1.6 1.06 1.35 1 1.15.93 1 .88.84.83.75.8.65.74.57.72.5.7.44.67.4.65.33.65.3.63.27.62.23.6.2.62.17.6.14.6.1.6.1.62.07h.24" stroke="#000" stroke-width="2" fill="none"/><path d="M703.78 161.65l14.64 3.3-4.73 7.97z" stroke="#000" stroke-width="2"/><path d="M799 399v2h-1.03v-2z"/><path d="M719.1 216.74l1.44-.6 2.12-.97 2.12-1.1 2.15-1.3 2.2-1.46.28-.2c-1.7-2.17-1.3-5.3.87-7 .55-.44 1.1-.7 1.75-.9.75-1.88 2.43-3.07 4.47-3.15-.04-2.76 2.18-5.02 4.95-5.04 1.3 0 2.4.4 3.36 1.27l.1-.12 2-2.33c-2.12-1.8-2.4-4.94-.6-7.05 1.78-2.1 4.94-2.37 7.04-.6l6.62-7.8 3.32-3.38 2.78-2.54 2.48-2.05 2.32-1.7 2.2-1.48 2.16-1.28 2.12-1.1 2.12-1 2.13-.85 2.17-.76 2.23-.65 2.32-.55 2.43-.44 2.57-.32 2.74-.2 1.94-.05" stroke="#000" stroke-width="2" fill="none"/><path d="M704.2 219.43l13.2-7.1 1.65 9.12z" stroke="#000" stroke-width="2"/><path d="M799 161h-1.03v-2H799z"/><path d="M719.5 220h12.12c0-2.76 2.23-5 5-5 .88 0 1.62.2 2.4.6 2.4-1.3 5.4-.45 6.75 1.93 1.36-2.4 4.4-3.24 6.8-1.88 1.63.92 2.55 2.5 2.55 4.35H798" stroke="#000" stroke-width="2" fill="none"/><path d="M704.24 220l14.26-4.64v9.28z" stroke="#000" stroke-width="2"/><path d="M799 221h-1.03v-2H799z"/><path d="M719.1 223.26l1.44.6 2.12.97 2.12 1.1 2.15 1.3 2.2 1.46 2.33 1.7 2.48 2.06 2.78 2.53 1.35 1.36c2-1.9 5.17-1.8 7.06.2 1.9 2.02 1.8 5.2-.2 7.08-.04.03-.08.06-.1.1l.08.1 2.04 2.4c2.1-1.77 5.27-1.5 7.05.6 1.77 2.1 1.5 5.26-.6 7.05l6.56 7.74 3.32 3.37 2.78 2.54 2.48 2.05 2.32 1.7 2.2 1.48 2.16 1.28 2.12 1.1 2.12 1 2.13.85 2.17.76 2.23.65 2.32.55 2.43.44 2.57.32 2.74.2 1.94.05" stroke="#000" stroke-width="2" fill="none"/><path d="M704.2 220.57l14.85-2.02-1.65 9.12z" stroke="#000" stroke-width="2"/><path d="M799 279v2h-1.03v-2z"/><path d="M718.22 225.84l1.04.78 1.25 1.05 1.32 1.17 1.38 1.35 1.44 1.53 1.54 1.8 1.66 2.08 1.8 2.5 2 3 2.28 3.77 2.67 4.88 3.4 6.88 5.56 12.6L760 303.37l3.4 6.88 2.68 4.88 2.27 3.76 2 3 1.8 2.5 1.67 2.08 1.54 1.8 1.44 1.53 1.38 1.36 1.3 1.17 1.26 1.05 1.22.92 1.18.82 1.15.73 1.12.65 1.1.58 1.1.52 1.1.46 1.1.4 1.1.36 1.1.3 1.1.27 1.13.2 1.14.18 1.16.12 1.2.07h.24" stroke="#000" stroke-width="2" fill="none"/><path d="M704.07 221.04l15 .2-2.98 8.77z" stroke="#000" stroke-width="2"/><path d="M799 339v2h-1.03v-2z"/><path d="M717.25 227.72l1.05 1.12 1.2 1.38 1.28 1.62 1.4 1.9 1.5 2.3 1.66 2.75 1.86 3.38 2.12 4.28 2.48 5.57 3 7.62 3.97 11.45 7.1 23.86 15.36 53.94 3.97 11.45 3 7.62 2.48 5.57 2.12 4.28 1.86 3.4 1.66 2.75 1.5 2.28 1.4 1.9 1.28 1.63 1.2 1.38 1.12 1.2 1.07 1.04 1 .9.96.8.93.72.88.62.87.55.85.48.82.43.8.4.8.33.8.3.8.25.77.22.78.18.78.15.8.12.8.08.64.04" stroke="#000" stroke-width="2" fill="none"/><path d="M703.92 221.4l14.88 1.92-3.98 8.38z" stroke="#000" stroke-width="2"/><path d="M799 399v2h-1.03v-2z"/><path d="M718.22 274.16l1.04-.78 1.25-1.05 1.32-1.17 1.38-1.35 1.44-1.53 1.54-1.8 1.66-2.08 1.8-2.5 1.1-1.63c-2.35-1.46-3.07-4.55-1.6-6.9.65-1.05 1.55-1.74 2.74-2.1-.7-2.7.9-5.42 3.58-6.1 1.2-.32 2.35-.2 3.47.35l.5-.98c-2.5-1.13-3.62-4.06-2.5-6.57.73-1.7 2.2-2.77 4.05-2.96-1.64-2.2-1.17-5.34 1.05-6.98 1.47-1.1 3.26-1.3 4.94-.58l1.2-2.84c-2.55-1.07-3.73-4-2.66-6.55 1.1-2.54 4.02-3.73 6.56-2.65l4.57-10.8c-2.54-1.07-3.73-4-2.66-6.55 1.08-2.54 4-3.73 6.55-2.65.03 0 .05.02.08.03l2.8-5.68 2.68-4.88 2.27-3.76 2-3 1.8-2.5 1.67-2.08 1.54-1.8 1.44-1.53 1.38-1.36 1.3-1.17 1.26-1.05 1.22-.92 1.18-.82 1.15-.73 1.12-.65 1.1-.58 1.1-.52 1.1-.46 1.1-.4 1.1-.36 1.1-.3 1.1-.27 1.13-.2 1.14-.18 1.16-.12 1.2-.07h.24" stroke="#000" stroke-width="2" fill="none"/><path d="M704.07 278.96L716.1 270l2.97 8.77z" stroke="#000" stroke-width="2"/><path d="M799 161h-1.03v-2H799z"/><path d="M719.1 276.74l1.44-.6 2.12-.97 2.12-1.1 2.15-1.3 2.2-1.46 2.33-1.7 1.48-1.23c-1.84-2.06-1.65-5.22.4-7.06.92-.8 1.94-1.2 3.15-1.25-.03-2.28 1.4-4.2 3.6-4.85.4-2.5 2.58-4.28 5.12-4.2-.32-1.56.05-3.03 1.1-4.25 1.77-2.1 4.92-2.4 7.04-.62v.02l2-2.34c-2.12-1.77-2.38-4.92-.6-7.03 1.78-2.1 4.94-2.37 7.05-.6l.17.15 1.3-1.33 2.8-2.54 2.47-2.05 2.32-1.7 2.2-1.48 2.16-1.28 2.12-1.1 2.12-1 2.13-.85 2.17-.76 2.23-.65 2.32-.55 2.43-.44 2.57-.32 2.74-.2 1.94-.05" stroke="#000" stroke-width="2" fill="none"/><path d="M704.2 279.43l13.2-7.1 1.65 9.12z" stroke="#000" stroke-width="2"/><path d="M799 221h-1.03v-2H799z"/><path d="M719.5 280h16.92c0-2.76 2.24-5 5-5 1.85 0 3.43.92 4.35 2.53.93-1.65 2.57-2.57 4.46-2.53 1.78-.04 3.3.76 4.3 2.25 1.5-2.3 4.6-2.94 6.92-1.43 1.45.96 2.25 2.44 2.25 4.18H798" stroke="#000" stroke-width="2" fill="none"/><path d="M704.24 280l14.26-4.64v9.28z" stroke="#000" stroke-width="2"/><path d="M799 281h-1.03v-2H799z"/><path d="M719.1 283.26l1.44.6 2.12.97 2.12 1.1 2.15 1.3 2.2 1.46 2.33 1.7 2.48 2.06 2.78 2.53 3.32 3.36 4.87 5.5 2.04 2.4c2.1-1.8 5.27-1.53 7.05.58 1.77 2.1 1.5 5.26-.6 7.05l2.8 3.28c2.1-1.78 5.25-1.52 7.04.6 1.7 2 1.55 4.98-.36 6.82l.4.4 2.78 2.54 2.48 2.05 2.32 1.7 2.2 1.48 2.16 1.28 2.12 1.1 2.12 1 2.13.85 2.17.76 2.23.65 2.32.55 2.43.44 2.57.32 2.74.2 1.94.05" stroke="#000" stroke-width="2" fill="none"/><path d="M704.2 280.57l14.85-2.02-1.65 9.12z" stroke="#000" stroke-width="2"/><path d="M799 339v2h-1.03v-2z"/><path d="M718.22 285.84l1.04.78 1.25 1.05 1.32 1.17 1.38 1.35 1.44 1.53 1.54 1.8 1.66 2.08 1.8 2.5 2 3 2.28 3.77 2.67 4.88 3.4 6.88 5.56 12.6L760 363.37l3.4 6.88 2.68 4.88 2.27 3.76 2 3 1.8 2.5 1.67 2.08 1.54 1.8 1.44 1.53 1.38 1.36 1.3 1.17 1.26 1.05 1.22.92 1.18.82 1.15.73 1.12.65 1.1.58 1.1.52 1.1.46 1.1.4 1.1.36 1.1.3 1.1.27 1.13.2 1.14.18 1.16.12 1.2.07h.24" stroke="#000" stroke-width="2" fill="none"/><path d="M704.07 281.04l15 .2-2.98 8.77z" stroke="#000" stroke-width="2"/><path d="M799 399v2h-1.03v-2z"/><path d="M717.25 332.28l1.05-1.12 1.2-1.38 1.28-1.62 1.4-1.9 1.5-2.3 1.66-2.75 1.86-3.38 2.12-4.28 2.2-4.93c-2.57-1.02-3.8-3.93-2.8-6.5.84-2.04 2.8-3.27 5-3.12-2.23-1.63-2.7-4.76-1.08-6.98 1.32-1.8 3.56-2.5 5.67-1.77l.47-1.33 1.22-4.1c-2.65-.8-4.16-3.58-3.37-6.23.64-2.16 2.54-3.57 4.8-3.57.5 0 .93.06 1.42.2l.72-2.44c-2.64-.8-4.15-3.57-3.36-6.22.3-.96.78-1.7 1.54-2.36-.8-2.65.7-5.44 3.35-6.23.95-.3 1.83-.3 2.8-.02l.88-3.1c-2.66-.74-4.2-3.5-3.44-6.17v-.06c.75-2.66 3.5-4.22 6.17-3.5l.04.02 2.34-8.2c-2.66-.75-4.2-3.5-3.44-6.17.75-2.65 3.52-4.2 6.17-3.44l.73-2.5c-2.66-.75-4.2-3.5-3.44-6.17.74-2.66 3.5-4.2 6.17-3.44l1.16-4.1.46-1.33c-2.62-.9-4-3.75-3.1-6.36.9-2.6 3.75-3.98 6.36-3.08l.24-.67 3-7.62 2.48-5.57 2.12-4.28 1.86-3.4 1.66-2.75 1.5-2.28 1.4-1.9 1.28-1.63 1.2-1.38 1.12-1.2 1.07-1.04 1-.9.96-.8.93-.72.88-.62.87-.55.85-.48.82-.43.8-.4.8-.33.8-.3.8-.25.77-.22.78-.18.78-.15.8-.12.8-.08.64-.04" stroke="#000" stroke-width="2" fill="none"/><path d="M703.92 338.6l10.9-10.3 3.98 8.38z" stroke="#000" stroke-width="2"/><path d="M799 161h-1.03v-2H799z"/><path d="M718.22 334.16l1.04-.78 1.25-1.05 1.32-1.17 1.38-1.35 1.44-1.53 1.54-1.8 1.66-2.08 1.8-2.5 2-3 2.28-3.77.4-.74c-2.42-1.33-3.3-4.37-2-6.8 1.3-2.36 4.2-3.27 6.6-2.08l.5-.98c-2.52-1.14-3.63-4.1-2.48-6.62.76-1.67 2.22-2.72 4.05-2.9-1.66-2.22-1.2-5.35 1.02-7 1.47-1.1 3.26-1.3 4.95-.58l1.2-2.84c-2.55-1.07-3.73-4-2.66-6.55l.1-.18c.97-2.58 3.85-3.88 6.44-2.9l.18.07 1.08-2.56c-2.55-1.07-3.74-4-2.66-6.55.7-1.66 2.1-2.74 3.88-3-1.6-2.24-1.1-5.36 1.13-6.98 1.48-1.07 3.27-1.26 4.95-.52l.47-.95c-2.48-1.22-3.5-4.22-2.27-6.7 1.23-2.47 4.22-3.5 6.7-2.26l.18.1.4-.75 2.27-3.76 2-3 1.8-2.5 1.67-2.08 1.54-1.8 1.44-1.53 1.38-1.36 1.3-1.17 1.26-1.05 1.22-.92 1.18-.82 1.15-.73 1.12-.65 1.1-.58 1.1-.52 1.1-.46 1.1-.4 1.1-.36 1.1-.3 1.1-.27 1.13-.2 1.14-.18 1.16-.12 1.2-.07h.24" stroke="#000" stroke-width="2" fill="none"/><path d="M704.07 338.96L716.1 330l2.97 8.77z" stroke="#000" stroke-width="2"/><path d="M799 221h-1.03v-2H799z"/><path d="M719.1 336.74l1.44-.6 2.12-.97 2.12-1.1 2.15-1.3 2.2-1.46 2.33-1.7 2.48-2.06 2.78-2.53 1.34-1.35c-2-1.9-2.1-5.06-.2-7.07 1.85-1.97 4.92-2.1 6.95-.3l.1-.13 2-2.33c-2.12-1.8-2.4-4.94-.6-7.05v-.02c1.14-1.34 2.73-1.96 4.47-1.74-.75-2.5.5-5.1 2.92-6.07.48-2.25 2.34-3.8 4.63-3.93-.03-2.76 2.2-5.02 4.95-5.05 1.5 0 2.78.56 3.78 1.68l1.48-1.22 2.32-1.7 2.2-1.48 2.16-1.28 2.12-1.1 2.12-1 2.13-.85 2.17-.76 2.23-.65 2.32-.55 2.43-.44 2.57-.32 2.74-.2 1.94-.05" stroke="#000" stroke-width="2" fill="none"/><path d="M704.2 339.43l13.2-7.1 1.65 9.12z" stroke="#000" stroke-width="2"/><path d="M799 281h-1.03v-2H799z"/><path d="M719.5 340h25.62c0-2.76 2.23-5 5-5 1.8 0 3.35.88 4.3 2.43 1.38-2.33 4.37-3.12 6.74-1.78 2.4-1.36 5.45-.52 6.8 1.9.46.77.66 1.54.66 2.45H798" stroke="#000" stroke-width="2" fill="none"/><path d="M704.24 340l14.26-4.64v9.28z" stroke="#000" stroke-width="2"/><path d="M799 341h-1.03v-2H799z"/><path d="M719.02 343.58l1.96.9 2 1.05 2 1.2 2.05 1.36 2.14 1.58 2.26 1.86 2.44 2.23 2.75 2.8 3.32 3.7 4.92 6.15 15.2 19.96 3.32 3.73 2.75 2.8 2.44 2.23 2.26 1.86 2.14 1.57 2.05 1.37 2 1.2 2 1.04 1.98.92 2 .8 2.03.7 2.08.6 2.16.5 2.24.4 2.35.3 2.5.2 1.65.04" stroke="#000" stroke-width="2" fill="none"/><path d="M704.18 340.63l14.9-1.77-1.8 9.1z" stroke="#000" stroke-width="2"/><path d="M799 405.67v2h-1.03v-2z"/><path d="M716.35 390.9l.4-.52 1.16-1.6 1.27-1.9 1.4-2.3 1.55-2.83 1.75-3.54 2.02-4.53 2.35-6 2.87-8.24.48-1.63c-2.64-.8-4.14-3.58-3.35-6.22.8-2.65 3.58-4.15 6.23-3.36l.3-1 .6-2.37c-2.67-.68-4.3-3.4-3.6-6.08.67-2.68 3.4-4.3 6.07-3.62l2.27-8.95.3-1.3c-2.7-.6-4.4-3.27-3.8-5.96.58-2.7 3.25-4.42 5.95-3.82l1.4-6.24c-2.7-.6-4.4-3.27-3.82-5.97.3-1.3 1-2.3 2.1-3.05-1.43-2.37-.67-5.44 1.7-6.87 1.14-.7 2.35-.9 3.66-.6l1.6-7.14c-2.7-.6-4.4-3.27-3.8-5.96 0-.07 0-.12.03-.18.5-2.72 3.1-4.52 5.82-4.02.06 0 .1.02.18.04l1.5-6.74c-2.7-.6-4.4-3.27-3.8-5.96.3-1.4 1.06-2.46 2.28-3.2-1.53-2.3-.92-5.4 1.38-6.94 1.18-.8 2.47-1.03 3.86-.73l1.26-5.7c-2.7-.6-4.4-3.27-3.8-5.97.08-.35.17-.63.32-.96.04-2.76 2.32-4.96 5.08-4.92.35 0 .65.04 1 .12l2.04-9.24c-2.7-.6-4.4-3.26-3.8-5.96.6-2.7 3.27-4.4 5.96-3.8l.5-2.3c-2.63-.8-4.14-3.58-3.34-6.23.8-2.65 3.58-4.15 6.22-3.36l.8-2.67 2.87-8.25 2.36-6 2.03-4.53 1.75-3.55 1.55-2.83 1.4-2.3 1.26-1.9 1.15-1.6 1.06-1.35 1-1.15.93-1 .88-.84.83-.75.8-.65.74-.57.72-.5.7-.44.67-.4.65-.33.65-.3.63-.27.62-.23.6-.2.62-.17.6-.14.6-.1.6-.1.62-.07h.24" stroke="#000" stroke-width="2" fill="none"/><path d="M703.78 398.35l9.9-11.27 4.74 7.97z" stroke="#000" stroke-width="2"/><path d="M799 161h-1.03v-2H799z"/><path d="M717.25 392.28l1.05-1.12 1.2-1.38 1.28-1.62 1.4-1.9 1.5-2.3 1.66-2.75 1.86-3.38 2.12-4.28 2.48-5.57 2.8-7.07c-2.62-.92-3.98-3.78-3.07-6.38.92-2.6 3.75-3.97 6.35-3.06l.9-2.56 1.2-4.1c-2.63-.8-4.14-3.58-3.35-6.23.78-2.64 3.57-4.15 6.22-3.36l.72-2.44c-2.64-.8-4.15-3.57-3.36-6.22.8-2.64 3.56-4.15 6.2-3.37l2.38-8.33c-2.66-.75-4.2-3.52-3.44-6.18v-.06c.75-2.66 3.5-4.22 6.17-3.5l.04.02 1.1-3.8c-2.67-.77-4.2-3.53-3.45-6.2.22-.8.57-1.42 1.14-2.03-.54-2.72 1.22-5.35 3.93-5.88.82-.16 1.54-.13 2.34.1l.73-2.5c-2.2-.63-3.63-2.55-3.63-4.82 0-2.76 2.23-5 5-5 .48 0 .9.06 1.37.2l1.16-4.1.46-1.33c-2.62-.9-4-3.75-3.1-6.36.75-2.16 2.78-3.5 5.07-3.34-2.23-1.64-2.7-4.76-1.08-7 1.37-1.86 3.74-2.54 5.9-1.67l2.18-4.94 2.12-4.28 1.86-3.4 1.66-2.75 1.5-2.28 1.4-1.9 1.28-1.63 1.2-1.38 1.12-1.2 1.07-1.04 1-.9.96-.8.93-.72.88-.62.87-.55.85-.48.82-.43.8-.4.8-.33.8-.3.8-.25.77-.22.78-.18.78-.15.8-.12.8-.08.64-.04" stroke="#000" stroke-width="2" fill="none"/><path d="M703.92 398.6l10.9-10.3 3.98 8.38z" stroke="#000" stroke-width="2"/><path d="M799 221h-1.03v-2H799z"/><path d="M718.22 394.16l1.04-.78 1.25-1.05 1.32-1.17 1.38-1.35 1.44-1.53 1.54-1.8 1.66-2.08 1.8-2.5 2-3 2.28-3.77 2.67-4.88 2.12-4.3c-2.5-1.18-3.57-4.16-2.4-6.66 1.17-2.47 4.07-3.55 6.55-2.45l2.7-6.08 2.6-6.17c-2.55-1.07-3.73-4-2.66-6.55 1.1-2.54 4.02-3.73 6.56-2.65l1.24-2.92c-2.55-1.07-3.74-4-2.66-6.55.7-1.66 2.1-2.74 3.88-3-1.16-1.6-1.28-3.6-.32-5.35.8-2.64 3.6-4.13 6.24-3.32.22.06.4.13.62.23v-.02c-2.47-1.22-3.48-4.22-2.26-6.7.63-1.27 1.63-2.13 3-2.55-.7-2.67.9-5.4 3.57-6.1 1.38-.36 2.7-.15 3.9.6l1.08-1.63 1.8-2.5 1.67-2.08 1.54-1.8 1.44-1.53 1.38-1.36 1.3-1.17 1.26-1.05 1.22-.92 1.18-.82 1.15-.73 1.12-.65 1.1-.58 1.1-.52 1.1-.46 1.1-.4 1.1-.36 1.1-.3 1.1-.27 1.13-.2 1.14-.18 1.16-.12 1.2-.07h.24" stroke="#000" stroke-width="2" fill="none"/><path d="M704.07 398.96L716.1 390l2.97 8.77z" stroke="#000" stroke-width="2"/><path d="M799 281h-1.03v-2H799z"/><path d="M719.1 396.74l1.44-.6 2.12-.97 2.12-1.1 2.15-1.3 2.2-1.46 2.33-1.7 2.48-2.06 2.78-2.53 3.32-3.36 4.87-5.5.65-.75c-2.1-1.8-2.37-4.94-.6-7.05 1.8-2.1 4.95-2.37 7.06-.6l3.35-3.94c-2.1-1.77-2.37-4.92-.6-7.03.94-1.1 2.14-1.7 3.58-1.77-.03-2.3 1.44-4.25 3.67-4.87 1-2.56 3.92-3.82 6.48-2.8.87.33 1.53.83 2.1 1.56l.28-.2 2.2-1.48 2.16-1.28 2.12-1.1 2.12-1 2.13-.85 2.17-.76 2.23-.65 2.32-.55 2.43-.44 2.57-.32 2.74-.2 1.94-.05" stroke="#000" stroke-width="2" fill="none"/><path d="M704.2 399.43l13.2-7.1 1.65 9.12z" stroke="#000" stroke-width="2"/><path d="M799 341h-1.03v-2H799z"/><path d="M719.5 400h50.62c0-2.76 2.24-5 5-5s5 2.24 5 5H798" stroke="#000" stroke-width="2" fill="none"/><path d="M704.24 400l14.26-4.64v9.28z" stroke="#000" stroke-width="2"/><path d="M799 401h-1.03v-2H799z"/><path d="M1100 205c0-2.76 2.24-5 5-5h150c2.76 0 5 2.24 5 5v110c0 2.76-2.24 5-5 5h-150c-2.76 0-5-2.24-5-5z" stroke="#000" stroke-width="2" fill="#fff"/><use xlink:href="#f" transform="matrix(1,0,0,1,1120,200) translate(35.025 52.8)"/><use xlink:href="#g" transform="matrix(1,0,0,1,1120,200) translate(16.525 74.4)"/><path d="M962 160.02l1.9.04 2.77.17 2.64.28 2.54.38 2.44.47 2.37.56 2.32.65 2.26.74 2.23.82 2.2.93 2.2 1.03 2.22 1.16 2.22 1.28 2.26 1.44 2.3 1.6 2.4 1.8 2.5 2.07 2.62 2.38 2.83 2.78 3.15 3.35 3.62 4.2 4.56 5.76 8.36 11.6 14.57 20.6 4.56 5.78 3.62 4.2 3.14 3.34 2.82 2.77 2.63 2.37 2.5 2.06 2.38 1.8 2.3 1.6 2.27 1.45 2.22 1.28 2.2 1.16 2.2 1.03 2.22.93 2.23.83 2 .66" stroke="#000" stroke-width="2" fill="none"/><path d="M962.05 159.02l-.04 2-1-.02v-2z"/><path d="M1095.8 259.54l-14.8 2.54 1.34-9.18z" stroke="#000" stroke-width="2"/><path d="M962 220.02l6 .12 6.14.4 5.52.57 5.02.75 4.65.88 4.38 1.03 4.2 1.17 4.1 1.33 4.13 1.54 4.3 1.8 4.8 2.27 6.27 3.3 23.27 12.96 4.8 2.26 4.3 1.8 4.12 1.54 4.1 1.33 4.2 1.17 4.37 1.03 4.65.88 5.02.74h.2" stroke="#000" stroke-width="2" fill="none"/><path d="M962.05 219.02l-.04 2-1-.02v-2z"/><path d="M1095.77 259.8l-14.5 3.8.53-9.25z" stroke="#000" stroke-width="2"/><path d="M962 279.98l12.12-.24 10.43-.65 8.76-.93 7.83-1.15 7.53-1.44 8.35-1.96 34.34-9.2 7.53-1.44 7.82-1.15 8.75-.92 5.06-.3" stroke="#000" stroke-width="2" fill="none"/><path d="M962.05 280.98L961 281v-2l1-.02z"/><path d="M1095.77 260.1l-14.1 5.1-.3-9.27z" stroke="#000" stroke-width="2"/><path d="M962 339.98l2.6-.05 3.4-.22 3.2-.32 3.02-.45 2.9-.55 2.8-.66 2.7-.75 2.6-.85 2.6-.96 2.53-1.07 2.53-1.2 2.54-1.33 2.56-1.48 2.62-1.67 2.7-1.9 2.86-2.15 3.07-2.54 3.42-3.08 4.05-3.97 5.66-6.07 20.94-23.52 4.05-3.96 3.42-3.08 3.07-2.54 2.85-2.16 2.7-1.9 2.62-1.65 2.56-1.47 2.54-1.33 2.53-1.2 2.54-1.06 2.57-.96 2.62-.85 2.7-.75.57-.14" stroke="#000" stroke-width="2" fill="none"/><path d="M962.05 340.98L961 341v-2l1-.02z"/><path d="M1095.8 260.38l-13.65 6.25-1.07-9.2z" stroke="#000" stroke-width="2"/><path d="M962 399.98l1.1-.02 2.02-.13 1.95-.2 1.9-.3 1.86-.34 1.83-.44 1.8-.5 1.77-.58 1.77-.66 1.76-.74 1.77-.83 1.78-.93 1.8-1.04 1.85-1.17 1.87-1.3 1.92-1.45 2-1.64 2.06-1.86 2.18-2.13 2.3-2.45 2.48-2.87 2.7-3.4 2.98-4.13 3.44-5.18 4.2-6.95 5.96-10.9 23.88-46.54 4.2-6.95 3.44-5.18 3-4.13 2.68-3.4 2.48-2.87 2.3-2.46 2.18-2.14 2.07-1.87 2-1.65 1.9-1.46 1.88-1.3 1.84-1.18 1.8-1.04 1.77-.93 1.77-.83.74-.32" stroke="#000" stroke-width="2" fill="none"/><path d="M962.05 400.98L961 401v-2l1-.02z"/><path d="M1095.83 260.63l-13.08 7.35-1.82-9.1z" stroke="#000" stroke-width="2"/><path d="M260 85c0-2.76 2.24-5 5-5h750c2.76 0 5 2.24 5 5v390c0 2.76-2.24 5-5 5H265c-2.76 0-5-2.24-5-5z" stroke="#000" stroke-width="2" fill-opacity="0"/><path d="M200 85c0-2.76 2.24-5 5-5h230c2.76 0 5 2.24 5 5v50c0 2.76-2.24 5-5 5H205c-2.76 0-5-2.24-5-5z" stroke="#000" stroke-opacity="0" stroke-width="2" fill="#fff" fill-opacity="0"/><g><use xlink:href="#h" transform="matrix(1,0,0,1,220,80) translate(55 33.6)"/></g><defs><path d="M30 0v-248h33v221h125V0H30" id="i"/><path d="M100-194c63 0 86 42 84 106H49c0 40 14 67 53 68 26 1 43-12 49-29l28 8c-11 28-37 45-77 45C44 4 14-33 15-96c1-61 26-98 85-98zm52 81c6-60-76-77-97-28-3 7-6 17-6 28h103" id="j"/><path d="M114-163C36-179 61-72 57 0H25l-1-190h30c1 12-1 29 2 39 6-27 23-49 58-41v29" id="k"/><g id="a"><use transform="matrix(0.05,0,0,0.05,0,0)" xlink:href="#i"/><use transform="matrix(0.05,0,0,0.05,10,0)" xlink:href="#j"/><use transform="matrix(0.05,0,0,0.05,20,0)" xlink:href="#k"/></g><path d="M205 0l-28-72H64L36 0H1l101-248h38L239 0h-34zm-38-99l-47-123c-12 45-31 82-46 123h93" id="l"/><path d="M145-31C134-9 116 4 85 4 32 4 16-35 15-94c0-59 17-99 70-100 32-1 48 14 60 33 0-11-1-24 2-32h30l-1 268h-32zM93-21c41 0 51-33 51-76s-8-73-50-73c-40 0-46 35-46 75s5 74 45 74" id="m"/><path d="M84 4C-5 8 30-112 23-190h32v120c0 31 7 50 39 49 72-2 45-101 50-169h31l1 190h-30c-1-10 1-25-2-33-11 22-28 36-60 37" id="n"/><path d="M24-231v-30h32v30H24zM24 0v-190h32V0H24" id="o"/><path d="M108 0H70L1-190h34L89-25l56-165h34" id="p"/><path d="M100-194c62-1 85 37 85 99 1 63-27 99-86 99S16-35 15-95c0-66 28-99 85-99zM99-20c44 1 53-31 53-75 0-43-8-75-51-75s-53 32-53 75 10 74 51 75" id="q"/><path d="M135-143c-3-34-86-38-87 0 15 53 115 12 119 90S17 21 10-45l28-5c4 36 97 45 98 0-10-56-113-15-118-90-4-57 82-63 122-42 12 7 21 19 24 35" id="r"/><g id="b"><use transform="matrix(0.05,0,0,0.05,0,0)" xlink:href="#l"/><use transform="matrix(0.05,0,0,0.05,12,0)" xlink:href="#k"/><use transform="matrix(0.05,0,0,0.05,17.95,0)" xlink:href="#m"/><use transform="matrix(0.05,0,0,0.05,27.950000000000003,0)" xlink:href="#n"/><use transform="matrix(0.05,0,0,0.05,37.95,0)" xlink:href="#o"/><use transform="matrix(0.05,0,0,0.05,41.900000000000006,0)" xlink:href="#p"/><use transform="matrix(0.05,0,0,0.05,50.900000000000006,0)" xlink:href="#q"/><use transform="matrix(0.05,0,0,0.05,60.900000000000006,0)" xlink:href="#r"/></g><path d="M30 0v-248h187v28H63v79h144v27H63v87h162V0H30" id="s"/><path d="M141 0L90-78 38 0H4l68-98-65-92h35l48 74 47-74h35l-64 92 68 98h-35" id="t"/><path d="M59-47c-2 24 18 29 38 22v24C64 9 27 4 27-40v-127H5v-23h24l9-43h21v43h35v23H59v120" id="u"/><path d="M141-36C126-15 110 5 73 4 37 3 15-17 15-53c-1-64 63-63 125-63 3-35-9-54-41-54-24 1-41 7-42 31l-33-3c5-37 33-52 76-52 45 0 72 20 72 64v82c-1 20 7 32 28 27v20c-31 9-61-2-59-35zM48-53c0 20 12 33 32 33 41-3 63-29 60-74-43 2-92-5-92 41" id="v"/><g id="c"><use transform="matrix(0.05,0,0,0.05,0,0)" xlink:href="#s"/><use transform="matrix(0.05,0,0,0.05,12,0)" xlink:href="#t"/><use transform="matrix(0.05,0,0,0.05,21,0)" xlink:href="#u"/><use transform="matrix(0.05,0,0,0.05,26,0)" xlink:href="#k"/><use transform="matrix(0.05,0,0,0.05,31.950000000000003,0)" xlink:href="#v"/><use transform="matrix(0.05,0,0,0.05,41.95,0)" xlink:href="#o"/><use transform="matrix(0.05,0,0,0.05,45.900000000000006,0)" xlink:href="#k"/></g><path d="M30-248c87 1 191-15 191 75 0 78-77 80-158 76V0H30v-248zm33 125c57 0 124 11 124-50 0-59-68-47-124-48v98" id="w"/><path d="M24 0v-261h32V0H24" id="x"/><g id="d"><use transform="matrix(0.05,0,0,0.05,0,0)" xlink:href="#w"/><use transform="matrix(0.05,0,0,0.05,12,0)" xlink:href="#v"/><use transform="matrix(0.05,0,0,0.05,22,0)" xlink:href="#x"/><use transform="matrix(0.05,0,0,0.05,25.950000000000003,0)" xlink:href="#v"/><use transform="matrix(0.05,0,0,0.05,35.95,0)" xlink:href="#p"/><use transform="matrix(0.05,0,0,0.05,44.95,0)" xlink:href="#k"/><use transform="matrix(0.05,0,0,0.05,50.900000000000006,0)" xlink:href="#v"/><use transform="matrix(0.05,0,0,0.05,60.900000000000006,0)" xlink:href="#r"/></g><path d="M212-179c-10-28-35-45-73-45-59 0-87 40-87 99 0 60 29 101 89 101 43 0 62-24 78-52l27 14C228-24 195 4 139 4 59 4 22-46 18-125c-6-104 99-153 187-111 19 9 31 26 39 46" id="y"/><path d="M117-194c89-4 53 116 60 194h-32v-121c0-31-8-49-39-48C34-167 62-67 57 0H25l-1-190h30c1 10-1 24 2 32 11-22 29-35 61-36" id="z"/><g id="e"><use transform="matrix(0.05,0,0,0.05,0,0)" xlink:href="#y"/><use transform="matrix(0.05,0,0,0.05,12.950000000000001,0)" xlink:href="#q"/><use transform="matrix(0.05,0,0,0.05,22.950000000000003,0)" xlink:href="#z"/><use transform="matrix(0.05,0,0,0.05,32.95,0)" xlink:href="#u"/><use transform="matrix(0.05,0,0,0.05,37.95,0)" xlink:href="#v"/><use transform="matrix(0.05,0,0,0.05,47.95,0)" xlink:href="#k"/></g><path d="M153-248C145-148 188 4 80 4 36 3 13-21 6-62l32-5c4 25 16 42 43 43 27 0 39-20 39-49v-147H72v-28h81" id="A"/><g id="f"><use transform="matrix(0.05,0,0,0.05,0,0)" xlink:href="#A"/><use transform="matrix(0.05,0,0,0.05,9,0)" xlink:href="#n"/><use transform="matrix(0.05,0,0,0.05,19,0)" xlink:href="#z"/><use transform="matrix(0.05,0,0,0.05,29,0)" xlink:href="#u"/><use transform="matrix(0.05,0,0,0.05,34,0)" xlink:href="#v"/><use transform="matrix(0.05,0,0,0.05,44,0)" xlink:href="#k"/></g><path d="M177-190C167-65 218 103 67 71c-23-6-38-20-44-43l32-5c15 47 100 32 89-28v-30C133-14 115 1 83 1 29 1 15-40 15-95c0-56 16-97 71-98 29-1 48 16 59 35 1-10 0-23 2-32h30zM94-22c36 0 50-32 50-73 0-42-14-75-50-75-39 0-46 34-46 75s6 73 46 73" id="B"/><g id="g"><use transform="matrix(0.05,0,0,0.05,0,0)" xlink:href="#y"/><use transform="matrix(0.05,0,0,0.05,12.950000000000001,0)" xlink:href="#q"/><use transform="matrix(0.05,0,0,0.05,22.950000000000003,0)" xlink:href="#z"/><use transform="matrix(0.05,0,0,0.05,32.95,0)" xlink:href="#u"/><use transform="matrix(0.05,0,0,0.05,37.95,0)" xlink:href="#v"/><use transform="matrix(0.05,0,0,0.05,47.95,0)" xlink:href="#B"/><use transform="matrix(0.05,0,0,0.05,57.95,0)" xlink:href="#j"/><use transform="matrix(0.05,0,0,0.05,67.95,0)" xlink:href="#z"/><use transform="matrix(0.05,0,0,0.05,77.95,0)" xlink:href="#r"/></g><path d="M143 4C61 4 22-44 18-125c-5-107 100-154 193-111 17 8 29 25 37 43l-32 9c-13-25-37-40-76-40-61 0-88 39-88 99 0 61 29 100 91 101 35 0 62-11 79-27v-45h-74v-28h105v86C228-13 192 4 143 4" id="C"/><path d="M185-189c-5-48-123-54-124 2 14 75 158 14 163 119 3 78-121 87-175 55-17-10-28-26-33-46l33-7c5 56 141 63 141-1 0-78-155-14-162-118-5-82 145-84 179-34 5 7 8 16 11 25" id="D"/><g id="h"><use transform="matrix(0.05,0,0,0.05,0,0)" xlink:href="#C"/><use transform="matrix(0.05,0,0,0.05,14,0)" xlink:href="#j"/><use transform="matrix(0.05,0,0,0.05,24,0)" xlink:href="#z"/><use transform="matrix(0.05,0,0,0.05,34,0)" xlink:href="#D"/><use transform="matrix(0.05,0,0,0.05,46,0)" xlink:href="#u"/><use transform="matrix(0.05,0,0,0.05,51,0)" xlink:href="#v"/><use transform="matrix(0.05,0,0,0.05,61,0)" xlink:href="#B"/><use transform="matrix(0.05,0,0,0.05,71,0)" xlink:href="#j"/><use transform="matrix(0.05,0,0,0.05,81,0)" xlink:href="#r"/></g></defs></g></svg>