<svg xmlns="http://www.w3.org/2000/svg" xmlns:xlink="http://www.w3.org/1999/xlink" xmlns:lucid="lucid" width="980" height="400"><g transform="translate(-260 -80)" lucid:page-tab-id="0_0"><path d="M280 205c0-2.76 2.24-5 5-5h150c2.76 0 5 2.24 5 5v110c0 2.76-2.24 5-5 5H285c-2.76 0-5-2.24-5-5z" stroke="#000" stroke-width="2" fill="#fff"/><use xlink:href="#a" transform="matrix(1,0,0,1,300,200) translate(9.574999999999996 63.6)"/><use xlink:href="#b" transform="matrix(1,0,0,1,300,200) translate(40.52499999999999 63.6)"/><path d="M540 105c0-2.76 2.24-5 5-5h150c2.76 0 5 2.24 5 5v110c0 2.76-2.24 5-5 5H545c-2.76 0-5-2.24-5-5z" stroke="#000" stroke-width="2" fill="#fff"/><use xlink:href="#c" transform="matrix(1,0,0,1,560,100) translate(34.074999999999996 52.8)"/><use xlink:href="#d" transform="matrix(1,0,0,1,560,100) translate(25.049999999999997 74.4)"/><path d="M800 105c0-2.76 2.24-5 5-5h150c2.76 0 5 2.24 5 5v110c0 2.76-2.24 5-5 5H805c-2.76 0-5-2.24-5-5z" stroke="#000" stroke-width="2" fill="#fff"/><use xlink:href="#e" transform="matrix(1,0,0,1,820,100) translate(33.05 52.8)"/><use xlink:href="#d" transform="matrix(1,0,0,1,820,100) translate(25.049999999999997 74.4)"/><path d="M442 259.98l.76-.02 1.7-.13 1.6-.2 1.6-.28 1.53-.36 1.5-.43 1.5-.5 1.5-.6 1.5-.67 1.5-.77 1.5-.9 1.57-1 1.6-1.15 1.65-1.33 1.74-1.53 1.84-1.8 1.97-2.14 2.15-2.58 2.4-3.2 2.8-4.14 3.5-5.8 5.5-10.2 15.65-30.73 3.5-5.8 2.8-4.12 2.4-3.2 2.16-2.58 1.97-2.13 1.84-1.82 1.74-1.53 1.65-1.33 1.6-1.16 1.24-.8" stroke="#000" stroke-width="2" fill="none"/><path d="M442.05 260.97L441 261v-2l1-.03z"/><path d="M535.9 160.9l-12.43 8.4-2.57-8.9z" stroke="#000" stroke-width="2"/><path d="M702 160h78.5" stroke="#000" stroke-width="2" fill="none"/><path d="M702.03 161H701v-2h1.03z"/><path d="M795.76 160l-14.26 4.64v-9.28z" stroke="#000" stroke-width="2"/><path d="M540 165c0-2.76 2.24-5 5-5h150c2.76 0 5 2.24 5 5v110c0 2.76-2.24 5-5 5H545c-2.76 0-5-2.24-5-5z" stroke="#000" stroke-width="2" fill="#fff"/><use xlink:href="#c" transform="matrix(1,0,0,1,560,160) translate(34.074999999999996 52.8)"/><use xlink:href="#d" transform="matrix(1,0,0,1,560,160) translate(25.049999999999997 74.4)"/><path d="M540 225c0-2.76 2.24-5 5-5h150c2.76 0 5 2.24 5 5v110c0 2.76-2.24 5-5 5H545c-2.76 0-5-2.24-5-5z" stroke="#000" stroke-width="2" fill="#fff"/><use xlink:href="#c" transform="matrix(1,0,0,1,560,220) translate(34.074999999999996 52.8)"/><use xlink:href="#d" transform="matrix(1,0,0,1,560,220) translate(25.049999999999997 74.4)"/><path d="M442 259.97l3.33-.08 3.88-.3 3.55-.46 3.26-.6 3.07-.7 2.9-.84 2.8-.96 2.77-1.1 2.76-1.3 2.84-1.5 3.04-1.8 3.5-2.32 4.84-3.62 15.8-12.42 3.5-2.32 3.04-1.8 2.84-1.5 2.76-1.3 2.76-1.1 2.8-.96 2.66-.77" stroke="#000" stroke-width="2" fill="none"/><path d="M442.05 260.97L441 261v-2l1-.03z"/><path d="M535.8 220.4l-13.6 6.32-1.13-9.2z" stroke="#000" stroke-width="2"/><path d="M442 261.36l7.7.2 7.04.52 5.97.76 5.34.96 5.07 1.2 5.34 1.53 7.8 2.72 15.32 5.56 5.33 1.55 5.06 1.18 5.33.96 3.24.4" stroke="#000" stroke-width="2" fill="none"/><path d="M442.05 260.36l-.05 2-1-.03v-2z"/><path d="M535.77 279.8l-14.52 3.8.55-9.26z" stroke="#000" stroke-width="2"/><path d="M540 285c0-2.76 2.24-5 5-5h150c2.76 0 5 2.24 5 5v110c0 2.76-2.24 5-5 5H545c-2.76 0-5-2.24-5-5z" stroke="#000" stroke-width="2" fill="#fff"/><use xlink:href="#c" transform="matrix(1,0,0,1,560,280) translate(34.074999999999996 52.8)"/><use xlink:href="#d" transform="matrix(1,0,0,1,560,280) translate(25.049999999999997 74.4)"/><path d="M442 260.03l1.23.03 2.1.16 2.03.26 1.93.35 1.86.43 1.83.53 1.78.6 1.78.72 1.76.82 1.78.93 1.8 1.07 1.82 1.22 1.9 1.4 1.97 1.62 2.08 1.92 2.26 2.28 2.5 2.82 2.92 3.63 3.72 5.15 7.82 12.23 10.02 15.82 3.72 5.15 2.9 3.63 2.52 2.82 2.26 2.28 2.1 1.92 1.97 1.62 1.88 1.4 1.83 1.22 1.8 1.07 1.27.66" stroke="#000" stroke-width="2" fill="none"/><path d="M442.05 259.03l-.05 2-1-.03v-2z"/><path d="M535.85 339.26l-14.95 1.23 2.13-9.03z" stroke="#000" stroke-width="2"/><path d="M540 345c0-2.76 2.24-5 5-5h150c2.76 0 5 2.24 5 5v110c0 2.76-2.24 5-5 5H545c-2.76 0-5-2.24-5-5z" stroke="#000" stroke-width="2" fill="#fff"/><use xlink:href="#c" transform="matrix(1,0,0,1,560,340) translate(34.074999999999996 52.8)"/><use xlink:href="#d" transform="matrix(1,0,0,1,560,340) translate(25.049999999999997 74.4)"/><path d="M800 165c0-2.76 2.24-5 5-5h150c2.76 0 5 2.24 5 5v110c0 2.76-2.24 5-5 5H805c-2.76 0-5-2.24-5-5z" stroke="#000" stroke-width="2" fill="#fff"/><use xlink:href="#e" transform="matrix(1,0,0,1,820,160) translate(33.05 52.8)"/><use xlink:href="#d" transform="matrix(1,0,0,1,820,160) translate(25.049999999999997 74.4)"/><path d="M800 225c0-2.76 2.24-5 5-5h150c2.76 0 5 2.24 5 5v110c0 2.76-2.24 5-5 5H805c-2.76 0-5-2.24-5-5z" stroke="#000" stroke-width="2" fill="#fff"/><use xlink:href="#e" transform="matrix(1,0,0,1,820,220) translate(33.05 52.8)"/><use xlink:href="#d" transform="matrix(1,0,0,1,820,220) translate(25.049999999999997 74.4)"/><path d="M800 285c0-2.76 2.24-5 5-5h150c2.76 0 5 2.24 5 5v110c0 2.76-2.24 5-5 5H805c-2.76 0-5-2.24-5-5z" stroke="#000" stroke-width="2" fill="#fff"/><use xlink:href="#e" transform="matrix(1,0,0,1,820,280) translate(33.05 52.8)"/><use xlink:href="#d" transform="matrix(1,0,0,1,820,280) translate(25.049999999999997 74.4)"/><path d="M800 345c0-2.76 2.24-5 5-5h150c2.76 0 5 2.24 5 5v110c0 2.76-2.24 5-5 5H805c-2.76 0-5-2.24-5-5z" stroke="#000" stroke-width="2" fill="#fff"/><use xlink:href="#e" transform="matrix(1,0,0,1,820,340) translate(33.05 52.8)"/><use xlink:href="#d" transform="matrix(1,0,0,1,820,340) translate(25.049999999999997 74.4)"/><path d="M442 260.02h.06l1.04.07 1 .1.6.08c.7-2.67 3.43-4.27 6.1-3.58 2.68.7 4.28 3.43 3.58 6.1-.1.34-.2.62-.35.94l.95.6 1.07.74 1.1.84 1.14.94 1.18 1.08 1.25 1.22 1.3 1.4 1.4 1.62 1.5 1.9 1.63 2.23 1.78 2.7 1.98 3.26 2.25 4.1 2.66 5.37 3.33 7.52 4.98 12.67 17.9 48.83 3.33 7.52 2.66 5.36 2.25 4.1 1.98 3.28 1.78 2.7 1.62 2.22 1.5 1.9 1.4 1.62 1.3 1.4 1.26 1.22 1.2 1.08.4.33" stroke="#000" stroke-width="2" fill="none"/><path d="M442.05 259.02l-.04 2-1-.02v-2z"/><path d="M535.98 398.83L521 398l3.35-8.64z" stroke="#000" stroke-width="2"/><path d="M702 160.03l1.94.04 2.74.2 2.57.34 2.43.45 2.32.54 2.23.64 2.18.75 2.14.85 2.12.98 2.12 1.1 2.15 1.3 2.2 1.46 2.33 1.7 2.48 2.06 2.78 2.53 3.32 3.36 4.87 5.5 15.06 17.78 3.32 3.37 2.78 2.54 2.48 2.05 2.32 1.7 2.2 1.48 2.16 1.28 2.12 1.1 2.12 1 1.44.58" stroke="#000" stroke-width="2" fill="none"/><path d="M702.05 159.03l-.05 2-1-.03v-2z"/><path d="M795.82 219.43l-14.87 2.03 1.65-9.13z" stroke="#000" stroke-width="2"/><path d="M702 160.02h.24l1.2.08 1.17.12 1.15.17 1.13.2 1.1.27 1.1.3 1.1.36 1.1.4 1.1.47 1.1.52 1.1.58 1.13.65 1.16.73 1.18.82 1.22.92 1.25 1.05 1.32 1.17 1.38 1.35 1.44 1.53 1.54 1.8 1.66 2.08 1.8 2.5 2 3 2.28 3.77 2.67 4.88 3.4 6.88 5.56 12.6L760 243.37l3.4 6.88 2.68 4.88 2.27 3.76 2 3 1.8 2.5 1.67 2.08 1.54 1.8 1.44 1.53 1.38 1.36 1.3 1.17 1.26 1.05 1.04.8" stroke="#000" stroke-width="2" fill="none"/><path d="M702.05 159.02l-.04 2-1-.02v-2z"/><path d="M795.94 278.96l-15-.2 2.97-8.77z" stroke="#000" stroke-width="2"/><path d="M702 160.03l.64.04.8.08.8.12.78.15.8.18.77.22.77.26.8.3.8.33.8.4.83.42.85.5.87.54.9.62.92.7.96.8 1 .92 1.08 1.04 1.12 1.2 1.2 1.38 1.28 1.62 1.4 1.9 1.5 2.3 1.66 2.75 1.86 3.38 2.12 4.28 2.48 5.57 3 7.62 3.97 11.45 7.1 23.86 15.36 53.94 3.97 11.45 3 7.62 2.48 5.57 2.12 4.28 1.86 3.4 1.66 2.75 1.5 2.28 1.4 1.9 1.28 1.63 1.2 1.38 1.05 1.12" stroke="#000" stroke-width="2" fill="none"/><path d="M702.05 159.02l-.04 2-1-.02v-2z"/><path d="M796.08 338.6l-14.88-1.92 3.98-8.37z" stroke="#000" stroke-width="2"/><path d="M702 160.04h.24l.6.08.62.1.6.1.6.14.6.17.62.2.62.23.63.27.65.3.65.34.68.4.7.44.73.5.75.58.8.65.8.75.9.85.92 1 1 1.14 1.05 1.35 1.16 1.6 1.27 1.9 1.4 2.3 1.55 2.83 1.75 3.54 2.02 4.53 2.35 6 2.87 8.24 3.66 12.2 5.34 21.03 25.1 113.42 3.66 12.2 2.87 8.26 2.36 6 2.03 4.53 1.75 3.55 1.55 2.83 1.4 2.3 1.26 1.9 1.15 1.6.4.5" stroke="#000" stroke-width="2" fill="none"/><path d="M702.05 159.02l-.04 2-1-.02v-2z"/><path d="M796.22 398.35l-14.64-3.3 4.73-7.97z" stroke="#000" stroke-width="2"/><path d="M702 219.97l1.94-.04 2.74-.2 2.57-.34 2.43-.45 2.32-.54 2.23-.64 2.18-.75 2.14-.85 2.12-.98 2.12-1.1 2.15-1.3 2.2-1.46.28-.2c-1.7-2.17-1.3-5.3.87-7 .55-.44 1.1-.7 1.75-.9.75-1.88 2.43-3.07 4.47-3.15-.04-2.76 2.18-5.02 4.95-5.04 1.3 0 2.4.4 3.36 1.27l.1-.12 2-2.33c-2.12-1.8-2.4-4.94-.6-7.05 1.78-2.1 4.94-2.37 7.04-.6l6.62-7.8 3.32-3.38 2.78-2.54 2.48-2.05 2.32-1.7 2.2-1.48 2.16-1.28 2.12-1.1 2.12-1 1.44-.58" stroke="#000" stroke-width="2" fill="none"/><path d="M702.05 220.97L701 221v-2l1-.03z"/><path d="M795.82 160.57l-13.22 7.1-1.65-9.13z" stroke="#000" stroke-width="2"/><path d="M702 220h29.62c0-2.76 2.23-5 5-5 .88 0 1.62.2 2.4.6 2.4-1.3 5.4-.45 6.75 1.93 1.36-2.4 4.4-3.24 6.8-1.88 1.63.92 2.55 2.5 2.55 4.35h25.38" stroke="#000" stroke-width="2" fill="none"/><path d="M702.03 221H701v-2h1.03z"/><path d="M795.76 220l-14.26 4.64v-9.28z" stroke="#000" stroke-width="2"/><path d="M702 220.03l1.94.04 2.74.2 2.57.34 2.43.45 2.32.54 2.23.64 2.18.75 2.14.85 2.12.98 2.12 1.1 2.15 1.3 2.2 1.46 2.33 1.7 2.48 2.06 2.78 2.53 1.35 1.36c2-1.9 5.17-1.8 7.06.2 1.9 2.02 1.8 5.2-.2 7.08-.04.03-.08.06-.1.1l.08.1 2.04 2.4c2.1-1.77 5.27-1.5 7.05.6 1.77 2.1 1.5 5.26-.6 7.05l6.56 7.74 3.32 3.37 2.78 2.54 2.48 2.05 2.32 1.7 2.2 1.48 2.16 1.28 2.12 1.1 2.12 1 1.44.58" stroke="#000" stroke-width="2" fill="none"/><path d="M702.05 219.03l-.05 2-1-.03v-2z"/><path d="M795.82 279.43l-14.87 2.03 1.65-9.13z" stroke="#000" stroke-width="2"/><path d="M702 220.02h.24l1.2.08 1.17.12 1.15.17 1.13.2 1.1.27 1.1.3 1.1.36 1.1.4 1.1.47 1.1.52 1.1.58 1.13.65 1.16.73 1.18.82 1.22.92 1.25 1.05 1.32 1.17 1.38 1.35 1.44 1.53 1.54 1.8 1.66 2.08 1.8 2.5 2 3 2.28 3.77 2.67 4.88 3.4 6.88 5.56 12.6L760 303.37l3.4 6.88 2.68 4.88 2.27 3.76 2 3 1.8 2.5 1.67 2.08 1.54 1.8 1.44 1.53 1.38 1.36 1.3 1.17 1.26 1.05 1.04.8" stroke="#000" stroke-width="2" fill="none"/><path d="M702.05 219.02l-.04 2-1-.02v-2z"/><path d="M795.94 338.96l-15-.2 2.97-8.77z" stroke="#000" stroke-width="2"/><path d="M702 220.03l.64.04.8.08.8.12.78.15.8.18.77.22.77.26.8.3.8.33.8.4.83.42.85.5.87.54.9.62.92.7.96.8 1 .92 1.08 1.04 1.12 1.2 1.2 1.38 1.28 1.62 1.4 1.9 1.5 2.3 1.66 2.75 1.86 3.38 2.12 4.28 2.48 5.57 3 7.62 3.97 11.45 7.1 23.86 15.36 53.94 3.97 11.45 3 7.62 2.48 5.57 2.12 4.28 1.86 3.4 1.66 2.75 1.5 2.28 1.4 1.9 1.28 1.63 1.2 1.38 1.05 1.12" stroke="#000" stroke-width="2" fill="none"/><path d="M702.05 219.02l-.04 2-1-.02v-2z"/><path d="M796.08 398.6l-14.88-1.92 3.98-8.37z" stroke="#000" stroke-width="2"/><path d="M702 279.98h.24l1.2-.08 1.17-.12 1.15-.17 1.13-.2 1.1-.27 1.1-.3 1.1-.36 1.1-.4 1.1-.47 1.1-.52 1.1-.58 1.13-.65 1.16-.73 1.18-.82 1.22-.92 1.25-1.05 1.32-1.17 1.38-1.35 1.44-1.53 1.54-1.8 1.66-2.08 1.8-2.5 1.1-1.63c-2.35-1.46-3.07-4.55-1.6-6.9.65-1.05 1.55-1.74 2.74-2.1-.7-2.7.9-5.42 3.58-6.1 1.2-.32 2.35-.2 3.47.35l.5-.98c-2.5-1.13-3.62-4.06-2.5-6.57.73-1.7 2.2-2.77 4.05-2.96-1.64-2.2-1.17-5.34 1.05-6.98 1.47-1.1 3.26-1.3 4.94-.58l1.2-2.84c-2.55-1.07-3.73-4-2.66-6.55 1.1-2.54 4.02-3.73 6.56-2.65l4.57-10.8c-2.54-1.07-3.73-4-2.66-6.55 1.08-2.54 4-3.73 6.55-2.65.03 0 .05.02.08.03l2.8-5.68 2.68-4.88 2.27-3.76 2-3 1.8-2.5 1.67-2.08 1.54-1.8 1.44-1.53 1.38-1.36 1.3-1.17 1.26-1.05 1.04-.8" stroke="#000" stroke-width="2" fill="none"/><path d="M702.05 280.98L701 281v-2l1-.02z"/><path d="M795.94 161.04L783.9 170l-2.96-8.77z" stroke="#000" stroke-width="2"/><path d="M702 279.97l1.94-.04 2.74-.2 2.57-.34 2.43-.45 2.32-.54 2.23-.64 2.18-.75 2.14-.85 2.12-.98 2.12-1.1 2.15-1.3 2.2-1.46 2.33-1.7 1.48-1.23c-1.84-2.06-1.65-5.22.4-7.06.92-.8 1.94-1.2 3.15-1.25-.03-2.28 1.4-4.2 3.6-4.85.4-2.5 2.58-4.28 5.12-4.2-.32-1.56.05-3.03 1.1-4.25 1.77-2.1 4.92-2.4 7.04-.62v.02l2-2.34c-2.12-1.77-2.38-4.92-.6-7.03 1.78-2.1 4.94-2.37 7.05-.6l.17.15 1.3-1.33 2.8-2.54 2.47-2.05 2.32-1.7 2.2-1.48 2.16-1.28 2.12-1.1 2.12-1 1.44-.58" stroke="#000" stroke-width="2" fill="none"/><path d="M702.05 280.97L701 281v-2l1-.03z"/><path d="M795.82 220.57l-13.22 7.1-1.65-9.13z" stroke="#000" stroke-width="2"/><path d="M702 280h34.42c0-2.76 2.24-5 5-5 1.85 0 3.43.92 4.35 2.53.93-1.65 2.57-2.57 4.46-2.53 1.78-.04 3.3.76 4.3 2.25 1.5-2.3 4.6-2.94 6.92-1.43 1.45.96 2.25 2.44 2.25 4.18h16.8" stroke="#000" stroke-width="2" fill="none"/><path d="M702.03 281H701v-2h1.03z"/><path d="M795.76 280l-14.26 4.64v-9.28z" stroke="#000" stroke-width="2"/><path d="M702 280.03l1.94.04 2.74.2 2.57.34 2.43.45 2.32.54 2.23.64 2.18.75 2.14.85 2.12.98 2.12 1.1 2.15 1.3 2.2 1.46 2.33 1.7 2.48 2.06 2.78 2.53 3.32 3.36 4.87 5.5 2.04 2.4c2.1-1.8 5.27-1.53 7.05.58 1.77 2.1 1.5 5.26-.6 7.05l2.8 3.28c2.1-1.78 5.25-1.52 7.04.6 1.7 2 1.55 4.98-.36 6.82l.4.4 2.78 2.54 2.48 2.05 2.32 1.7 2.2 1.48 2.16 1.28 2.12 1.1 2.12 1 1.44.58" stroke="#000" stroke-width="2" fill="none"/><path d="M702.05 279.03l-.05 2-1-.03v-2z"/><path d="M795.82 339.43l-14.87 2.03 1.65-9.13z" stroke="#000" stroke-width="2"/><path d="M702 280.02h.24l1.2.08 1.17.12 1.15.17 1.13.2 1.1.27 1.1.3 1.1.36 1.1.4 1.1.47 1.1.52 1.1.58 1.13.65 1.16.73 1.18.82 1.22.92 1.25 1.05 1.32 1.17 1.38 1.35 1.44 1.53 1.54 1.8 1.66 2.08 1.8 2.5 2 3 2.28 3.77 2.67 4.88 3.4 6.88 5.56 12.6L760 363.37l3.4 6.88 2.68 4.88 2.27 3.76 2 3 1.8 2.5 1.67 2.08 1.54 1.8 1.44 1.53 1.38 1.36 1.3 1.17 1.26 1.05 1.04.8" stroke="#000" stroke-width="2" fill="none"/><path d="M702.05 279.02l-.04 2-1-.02v-2z"/><path d="M795.94 398.96l-15-.2 2.97-8.77z" stroke="#000" stroke-width="2"/><path d="M702 339.97l.64-.04.8-.08.8-.12.78-.15.8-.18.77-.22.77-.26.8-.3.8-.33.8-.4.83-.42.85-.5.87-.54.9-.62.92-.7.96-.8 1-.92 1.08-1.04 1.12-1.2 1.2-1.38 1.28-1.62 1.4-1.9 1.5-2.3 1.66-2.75 1.86-3.38 2.12-4.28 2.2-4.93c-2.57-1.02-3.8-3.93-2.8-6.5.84-2.04 2.8-3.27 5-3.12-2.23-1.63-2.7-4.76-1.08-6.98 1.32-1.8 3.56-2.5 5.67-1.77l.47-1.33 1.22-4.1c-2.65-.8-4.16-3.58-3.37-6.23.64-2.16 2.54-3.57 4.8-3.57.5 0 .93.06 1.42.2l.72-2.44c-2.64-.8-4.15-3.57-3.36-6.22.3-.96.78-1.7 1.54-2.36-.8-2.65.7-5.44 3.35-6.23.95-.3 1.83-.3 2.8-.02l.88-3.1c-2.66-.74-4.2-3.5-3.44-6.17v-.06c.75-2.66 3.5-4.22 6.17-3.5l.04.02 2.34-8.2c-2.66-.75-4.2-3.5-3.44-6.17.75-2.65 3.52-4.2 6.17-3.44l.73-2.5c-2.66-.75-4.2-3.5-3.44-6.17.74-2.66 3.5-4.2 6.17-3.44l1.16-4.1.46-1.33c-2.62-.9-4-3.75-3.1-6.36.9-2.6 3.75-3.98 6.36-3.08l.24-.67 3-7.62 2.48-5.57 2.12-4.28 1.86-3.4 1.66-2.75 1.5-2.28 1.4-1.9 1.28-1.63 1.2-1.38 1.05-1.12" stroke="#000" stroke-width="2" fill="none"/><path d="M702.05 340.98L701 341v-2l1-.02z"/><path d="M796.08 161.4l-10.9 10.3-3.98-8.38z" stroke="#000" stroke-width="2"/><path d="M702 339.98h.24l1.2-.08 1.17-.12 1.15-.17 1.13-.2 1.1-.27 1.1-.3 1.1-.36 1.1-.4 1.1-.47 1.1-.52 1.1-.58 1.13-.65 1.16-.73 1.18-.82 1.22-.92 1.25-1.05 1.32-1.17 1.38-1.35 1.44-1.53 1.54-1.8 1.66-2.08 1.8-2.5 2-3 2.28-3.77.4-.74c-2.42-1.33-3.3-4.37-2-6.8 1.3-2.36 4.2-3.27 6.6-2.08l.5-.98c-2.52-1.14-3.63-4.1-2.48-6.62.76-1.67 2.22-2.72 4.05-2.9-1.66-2.22-1.2-5.35 1.02-7 1.47-1.1 3.26-1.3 4.95-.58l1.2-2.84c-2.55-1.07-3.73-4-2.66-6.55l.1-.18c.97-2.58 3.85-3.88 6.44-2.9l.18.07 1.08-2.56c-2.55-1.07-3.74-4-2.66-6.55.7-1.66 2.1-2.74 3.88-3-1.6-2.24-1.1-5.36 1.13-6.98 1.48-1.07 3.27-1.26 4.95-.52l.47-.95c-2.48-1.22-3.5-4.22-2.27-6.7 1.23-2.47 4.22-3.5 6.7-2.26l.18.1.4-.75 2.27-3.76 2-3 1.8-2.5 1.67-2.08 1.54-1.8 1.44-1.53 1.38-1.36 1.3-1.17 1.26-1.05 1.04-.8" stroke="#000" stroke-width="2" fill="none"/><path d="M702.05 340.98L701 341v-2l1-.02z"/><path d="M795.94 221.04L783.9 230l-2.96-8.77z" stroke="#000" stroke-width="2"/><path d="M702 339.97l1.94-.04 2.74-.2 2.57-.34 2.43-.45 2.32-.54 2.23-.64 2.18-.75 2.14-.85 2.12-.98 2.12-1.1 2.15-1.3 2.2-1.46 2.33-1.7 2.48-2.06 2.78-2.53 1.34-1.35c-2-1.9-2.1-5.06-.2-7.07 1.85-1.97 4.92-2.1 6.95-.3l.1-.13 2-2.33c-2.12-1.8-2.4-4.94-.6-7.05v-.02c1.14-1.34 2.73-1.96 4.47-1.74-.75-2.5.5-5.1 2.92-6.07.48-2.25 2.34-3.8 4.63-3.93-.03-2.76 2.2-5.02 4.95-5.05 1.5 0 2.78.56 3.78 1.68l1.48-1.22 2.32-1.7 2.2-1.48 2.16-1.28 2.12-1.1 2.12-1 1.44-.58" stroke="#000" stroke-width="2" fill="none"/><path d="M702.05 340.97L701 341v-2l1-.03z"/><path d="M795.82 280.57l-13.22 7.1-1.65-9.13z" stroke="#000" stroke-width="2"/><path d="M702 340h43.12c0-2.76 2.23-5 5-5 1.8 0 3.35.88 4.3 2.43 1.38-2.33 4.37-3.12 6.74-1.78 2.4-1.36 5.45-.52 6.8 1.9.46.77.66 1.54.66 2.45h11.88" stroke="#000" stroke-width="2" fill="none"/><path d="M702.03 341H701v-2h1.03z"/><path d="M795.76 340l-14.26 4.64v-9.28z" stroke="#000" stroke-width="2"/><path d="M702 340.03l1.66.04 2.5.2 2.34.3 2.24.4 2.15.5 2.07.6 2.03.7 2 .8 1.98.92 2 1.03 2 1.2 2.05 1.36 2.14 1.58 2.26 1.86 2.44 2.23 2.75 2.8 3.32 3.7 4.92 6.15 15.2 19.96 3.32 3.73 2.75 2.8 2.44 2.23 2.26 1.86 2.14 1.57 2.05 1.37 2 1.2 2 1.04 1.96.9" stroke="#000" stroke-width="2" fill="none"/><path d="M702.05 339.03l-.05 2-1-.03v-2z"/><path d="M795.83 406.04l-14.9 1.76 1.8-9.1z" stroke="#000" stroke-width="2"/><path d="M702 399.96h.24l.6-.08.62-.1.6-.1.6-.14.6-.17.62-.2.62-.23.63-.27.65-.3.65-.34.68-.4.7-.44.73-.5.75-.58.8-.65.8-.75.9-.85.92-1 1-1.14 1.05-1.35 1.16-1.6 1.27-1.9 1.4-2.3 1.55-2.83 1.75-3.54 2.02-4.53 2.35-6 2.87-8.24.48-1.63c-2.64-.8-4.14-3.58-3.35-6.22.8-2.65 3.58-4.15 6.23-3.36l.3-1 .6-2.37c-2.67-.68-4.3-3.4-3.6-6.08.67-2.68 3.4-4.3 6.07-3.62l2.27-8.95.3-1.3c-2.7-.6-4.4-3.27-3.8-5.96.58-2.7 3.25-4.42 5.95-3.82l1.4-6.24c-2.7-.6-4.4-3.27-3.82-5.97.3-1.3 1-2.3 2.1-3.05-1.43-2.37-.67-5.44 1.7-6.87 1.14-.7 2.35-.9 3.66-.6l1.6-7.14c-2.7-.6-4.4-3.27-3.8-5.96 0-.07 0-.12.03-.18.5-2.72 3.1-4.52 5.82-4.02.06 0 .1.02.18.04l1.5-6.74c-2.7-.6-4.4-3.27-3.8-5.96.3-1.4 1.06-2.46 2.28-3.2-1.53-2.3-.92-5.4 1.38-6.94 1.18-.8 2.47-1.03 3.86-.73l1.26-5.7c-2.7-.6-4.4-3.27-3.8-5.97.08-.35.17-.63.32-.96.04-2.76 2.32-4.96 5.08-4.92.35 0 .65.04 1 .12l2.04-9.24c-2.7-.6-4.4-3.26-3.8-5.96.6-2.7 3.27-4.4 5.96-3.8l.5-2.3c-2.63-.8-4.14-3.58-3.34-6.23.8-2.65 3.58-4.15 6.22-3.36l.8-2.67 2.87-8.25 2.36-6 2.03-4.53 1.75-3.55 1.55-2.83 1.4-2.3 1.26-1.9 1.15-1.6.4-.5" stroke="#000" stroke-width="2" fill="none"/><path d="M702.05 400.98L701 401v-2l1-.02z"/><path d="M796.22 161.65l-9.9 11.27-4.74-7.98z" stroke="#000" stroke-width="2"/><path d="M702 399.97l.64-.04.8-.08.8-.12.78-.15.8-.18.77-.22.77-.26.8-.3.8-.33.8-.4.83-.42.85-.5.87-.54.9-.62.92-.7.96-.8 1-.92 1.08-1.04 1.12-1.2 1.2-1.38 1.28-1.62 1.4-1.9 1.5-2.3 1.66-2.75 1.86-3.38 2.12-4.28 2.48-5.57 2.8-7.07c-2.62-.92-3.98-3.78-3.07-6.38.92-2.6 3.75-3.97 6.35-3.06l.9-2.56 1.2-4.1c-2.63-.8-4.14-3.58-3.35-6.23.78-2.64 3.57-4.15 6.22-3.36l.72-2.44c-2.64-.8-4.15-3.57-3.36-6.22.8-2.64 3.56-4.15 6.2-3.37l2.38-8.33c-2.66-.75-4.2-3.52-3.44-6.18v-.06c.75-2.66 3.5-4.22 6.17-3.5l.04.02 1.1-3.8c-2.67-.77-4.2-3.53-3.45-6.2.22-.8.57-1.42 1.14-2.03-.54-2.72 1.22-5.35 3.93-5.88.82-.16 1.54-.13 2.34.1l.73-2.5c-2.2-.63-3.63-2.55-3.63-4.82 0-2.76 2.23-5 5-5 .48 0 .9.06 1.37.2l1.16-4.1.46-1.33c-2.62-.9-4-3.75-3.1-6.36.75-2.16 2.78-3.5 5.07-3.34-2.23-1.64-2.7-4.76-1.08-7 1.37-1.86 3.74-2.54 5.9-1.67l2.18-4.94 2.12-4.28 1.86-3.4 1.66-2.75 1.5-2.28 1.4-1.9 1.28-1.63 1.2-1.38 1.05-1.12" stroke="#000" stroke-width="2" fill="none"/><path d="M702.05 400.98L701 401v-2l1-.02z"/><path d="M796.08 221.4l-10.9 10.3-3.98-8.38z" stroke="#000" stroke-width="2"/><path d="M702 399.98h.24l1.2-.08 1.17-.12 1.15-.17 1.13-.2 1.1-.27 1.1-.3 1.1-.36 1.1-.4 1.1-.47 1.1-.52 1.1-.58 1.13-.65 1.16-.73 1.18-.82 1.22-.92 1.25-1.05 1.32-1.17 1.38-1.35 1.44-1.53 1.54-1.8 1.66-2.08 1.8-2.5 2-3 2.28-3.77 2.67-4.88 2.12-4.3c-2.5-1.18-3.57-4.16-2.4-6.66 1.17-2.47 4.07-3.55 6.55-2.45l2.7-6.08 2.6-6.17c-2.55-1.07-3.73-4-2.66-6.55 1.1-2.54 4.02-3.73 6.56-2.65l1.24-2.92c-2.55-1.07-3.74-4-2.66-6.55.7-1.66 2.1-2.74 3.88-3-1.16-1.6-1.28-3.6-.32-5.35.8-2.64 3.6-4.13 6.24-3.32.22.06.4.13.62.23v-.02c-2.47-1.22-3.48-4.22-2.26-6.7.63-1.27 1.63-2.13 3-2.55-.7-2.67.9-5.4 3.57-6.1 1.38-.36 2.7-.15 3.9.6l1.08-1.63 1.8-2.5 1.67-2.08 1.54-1.8 1.44-1.53 1.38-1.36 1.3-1.17 1.26-1.05 1.04-.8" stroke="#000" stroke-width="2" fill="none"/><path d="M702.05 400.98L701 401v-2l1-.02z"/><path d="M795.94 281.04L783.9 290l-2.96-8.77z" stroke="#000" stroke-width="2"/><path d="M702 399.97l1.94-.04 2.74-.2 2.57-.34 2.43-.45 2.32-.54 2.23-.64 2.18-.75 2.14-.85 2.12-.98 2.12-1.1 2.15-1.3 2.2-1.46 2.33-1.7 2.48-2.06 2.78-2.53 3.32-3.36 4.87-5.5.65-.75c-2.1-1.8-2.37-4.94-.6-7.05 1.8-2.1 4.95-2.37 7.06-.6l3.35-3.94c-2.1-1.77-2.37-4.92-.6-7.03.94-1.1 2.14-1.7 3.58-1.77-.03-2.3 1.44-4.25 3.67-4.87 1-2.56 3.92-3.82 6.48-2.8.87.33 1.53.83 2.1 1.56l.28-.2 2.2-1.48 2.16-1.28 2.12-1.1 2.12-1 1.44-.58" stroke="#000" stroke-width="2" fill="none"/><path d="M702.05 400.97L701 401v-2l1-.03z"/><path d="M795.82 340.57l-13.22 7.1-1.65-9.13z" stroke="#000" stroke-width="2"/><path d="M702 400h68.12c0-2.76 2.24-5 5-5s5 2.24 5 5h.38" stroke="#000" stroke-width="2" fill="none"/><path d="M702.03 401H701v-2h1.03z"/><path d="M795.76 400l-14.26 4.64v-9.28z" stroke="#000" stroke-width="2"/><path d="M1060 205c0-2.76 2.24-5 5-5h150c2.76 0 5 2.24 5 5v110c0 2.76-2.24 5-5 5h-150c-2.76 0-5-2.24-5-5z" stroke="#000" stroke-width="2" fill="#fff"/><use xlink:href="#f" transform="matrix(1,0,0,1,1080,200) translate(35.025 52.8)"/><use xlink:href="#g" transform="matrix(1,0,0,1,1080,200) translate(16.525 74.4)"/><path d="M962 160.02l.76.02 1.7.13 1.6.2 1.6.28 1.53.36 1.5.43 1.5.5 1.5.6 1.5.67 1.5.77 1.5.9 1.57 1 1.6 1.15 1.65 1.33 1.74 1.53 1.84 1.8 1.97 2.14 2.15 2.58 2.4 3.2 2.8 4.14 3.5 5.8 5.5 10.2 15.65 30.73 3.5 5.8 2.8 4.12 2.4 3.2 2.16 2.58 1.97 2.13 1.84 1.82 1.74 1.53 1.65 1.33 1.6 1.16 1.24.8" stroke="#000" stroke-width="2" fill="none"/><path d="M962.05 159.03l-.05 2-1-.03v-2z"/><path d="M1055.9 259.1l-15 .5 2.57-8.9z" stroke="#000" stroke-width="2"/><path d="M962 220.03l3.33.08 3.88.3 3.55.46 3.26.6 3.07.7 2.9.84 2.8.96 2.77 1.1 2.76 1.3 2.84 1.5 3.04 1.8 3.5 2.32 4.84 3.62 15.8 12.42 3.5 2.32 3.04 1.8 2.84 1.5 2.76 1.3 2.76 1.1 2.8.96 2.66.77" stroke="#000" stroke-width="2" fill="none"/><path d="M962.05 219.03l-.05 2-1-.03v-2z"/><path d="M1055.8 259.6l-14.73 2.9 1.12-9.22z" stroke="#000" stroke-width="2"/><path d="M962 279.98l7.2-.18 6.68-.5 5.7-.74 5.1-.92 4.8-1.12 4.86-1.4 5.76-2 21.56-8.24 4.86-1.4 4.8-1.12 5.1-.92 2.13-.28" stroke="#000" stroke-width="2" fill="none"/><path d="M962.05 280.97L961 281v-2l1-.02z"/><path d="M1055.77 260.2l-13.95 5.53-.58-9.25z" stroke="#000" stroke-width="2"/><path d="M962 339.97l1.23-.03 2.1-.16 2.03-.26 1.93-.35 1.86-.43 1.83-.53 1.78-.6 1.78-.72 1.76-.82 1.78-.93 1.8-1.07 1.82-1.22 1.9-1.4 1.97-1.62 2.08-1.92 2.26-2.28 2.5-2.82 2.92-3.63 3.72-5.15 7.82-12.23 10.02-15.82 3.72-5.15 2.9-3.63 2.52-2.82 2.26-2.28 2.1-1.92 1.97-1.62 1.88-1.4 1.83-1.22 1.8-1.07 1.27-.66" stroke="#000" stroke-width="2" fill="none"/><path d="M962.05 340.97L961 341v-2l1-.03z"/><path d="M1055.85 260.74l-12.82 7.8-2.13-9.03z" stroke="#000" stroke-width="2"/><path d="M962 399.98h.06l1.04-.07 1-.1 1-.14 1-.2.97-.22.97-.27.97-.3.97-.37.98-.4.98-.48 1-.52 1.02-.58 1.03-.66 1.07-.74 1.1-.84 1.14-.94 1.18-1.08 1.25-1.22 1.3-1.4 1.4-1.62 1.5-1.9 1.63-2.23 1.78-2.7 1.98-3.26 2.25-4.1 2.66-5.37 3.33-7.52 4.98-12.67 17.9-48.83 3.33-7.52 2.66-5.36 2.25-4.1 1.98-3.28 1.78-2.7 1.62-2.22 1.5-1.9 1.4-1.62 1.3-1.4 1.26-1.22 1.2-1.08.4-.33" stroke="#000" stroke-width="2" fill="none"/><path d="M962.05 400.98L961 401v-2l1-.02z"/><path d="M1055.98 261.17l-11.63 9.47L1041 262z" stroke="#000" stroke-width="2"/><defs><path d="M30 0v-248h33v221h125V0H30" id="h"/><path d="M100-194c63 0 86 42 84 106H49c0 40 14 67 53 68 26 1 43-12 49-29l28 8c-11 28-37 45-77 45C44 4 14-33 15-96c1-61 26-98 85-98zm52 81c6-60-76-77-97-28-3 7-6 17-6 28h103" id="i"/><path d="M114-163C36-179 61-72 57 0H25l-1-190h30c1 12-1 29 2 39 6-27 23-49 58-41v29" id="j"/><g id="a"><use transform="matrix(0.05,0,0,0.05,0,0)" xlink:href="#h"/><use transform="matrix(0.05,0,0,0.05,10,0)" xlink:href="#i"/><use transform="matrix(0.05,0,0,0.05,20,0)" xlink:href="#j"/></g><path d="M205 0l-28-72H64L36 0H1l101-248h38L239 0h-34zm-38-99l-47-123c-12 45-31 82-46 123h93" id="k"/><path d="M145-31C134-9 116 4 85 4 32 4 16-35 15-94c0-59 17-99 70-100 32-1 48 14 60 33 0-11-1-24 2-32h30l-1 268h-32zM93-21c41 0 51-33 51-76s-8-73-50-73c-40 0-46 35-46 75s5 74 45 74" id="l"/><path d="M84 4C-5 8 30-112 23-190h32v120c0 31 7 50 39 49 72-2 45-101 50-169h31l1 190h-30c-1-10 1-25-2-33-11 22-28 36-60 37" id="m"/><path d="M24-231v-30h32v30H24zM24 0v-190h32V0H24" id="n"/><path d="M108 0H70L1-190h34L89-25l56-165h34" id="o"/><path d="M100-194c62-1 85 37 85 99 1 63-27 99-86 99S16-35 15-95c0-66 28-99 85-99zM99-20c44 1 53-31 53-75 0-43-8-75-51-75s-53 32-53 75 10 74 51 75" id="p"/><path d="M135-143c-3-34-86-38-87 0 15 53 115 12 119 90S17 21 10-45l28-5c4 36 97 45 98 0-10-56-113-15-118-90-4-57 82-63 122-42 12 7 21 19 24 35" id="q"/><g id="b"><use transform="matrix(0.05,0,0,0.05,0,0)" xlink:href="#k"/><use transform="matrix(0.05,0,0,0.05,12,0)" xlink:href="#j"/><use transform="matrix(0.05,0,0,0.05,17.95,0)" xlink:href="#l"/><use transform="matrix(0.05,0,0,0.05,27.950000000000003,0)" xlink:href="#m"/><use transform="matrix(0.05,0,0,0.05,37.95,0)" xlink:href="#n"/><use transform="matrix(0.05,0,0,0.05,41.900000000000006,0)" xlink:href="#o"/><use transform="matrix(0.05,0,0,0.05,50.900000000000006,0)" xlink:href="#p"/><use transform="matrix(0.05,0,0,0.05,60.900000000000006,0)" xlink:href="#q"/></g><path d="M30 0v-248h187v28H63v79h144v27H63v87h162V0H30" id="r"/><path d="M141 0L90-78 38 0H4l68-98-65-92h35l48 74 47-74h35l-64 92 68 98h-35" id="s"/><path d="M59-47c-2 24 18 29 38 22v24C64 9 27 4 27-40v-127H5v-23h24l9-43h21v43h35v23H59v120" id="t"/><path d="M141-36C126-15 110 5 73 4 37 3 15-17 15-53c-1-64 63-63 125-63 3-35-9-54-41-54-24 1-41 7-42 31l-33-3c5-37 33-52 76-52 45 0 72 20 72 64v82c-1 20 7 32 28 27v20c-31 9-61-2-59-35zM48-53c0 20 12 33 32 33 41-3 63-29 60-74-43 2-92-5-92 41" id="u"/><g id="c"><use transform="matrix(0.05,0,0,0.05,0,0)" xlink:href="#r"/><use transform="matrix(0.05,0,0,0.05,12,0)" xlink:href="#s"/><use transform="matrix(0.05,0,0,0.05,21,0)" xlink:href="#t"/><use transform="matrix(0.05,0,0,0.05,26,0)" xlink:href="#j"/><use transform="matrix(0.05,0,0,0.05,31.950000000000003,0)" xlink:href="#u"/><use transform="matrix(0.05,0,0,0.05,41.95,0)" xlink:href="#n"/><use transform="matrix(0.05,0,0,0.05,45.900000000000006,0)" xlink:href="#j"/></g><path d="M30-248c87 1 191-15 191 75 0 78-77 80-158 76V0H30v-248zm33 125c57 0 124 11 124-50 0-59-68-47-124-48v98" id="v"/><path d="M24 0v-261h32V0H24" id="w"/><g id="d"><use transform="matrix(0.05,0,0,0.05,0,0)" xlink:href="#v"/><use transform="matrix(0.05,0,0,0.05,12,0)" xlink:href="#u"/><use transform="matrix(0.05,0,0,0.05,22,0)" xlink:href="#w"/><use transform="matrix(0.05,0,0,0.05,25.950000000000003,0)" xlink:href="#u"/><use transform="matrix(0.05,0,0,0.05,35.95,0)" xlink:href="#o"/><use transform="matrix(0.05,0,0,0.05,44.95,0)" xlink:href="#j"/><use transform="matrix(0.05,0,0,0.05,50.900000000000006,0)" xlink:href="#u"/><use transform="matrix(0.05,0,0,0.05,60.900000000000006,0)" xlink:href="#q"/></g><path d="M212-179c-10-28-35-45-73-45-59 0-87 40-87 99 0 60 29 101 89 101 43 0 62-24 78-52l27 14C228-24 195 4 139 4 59 4 22-46 18-125c-6-104 99-153 187-111 19 9 31 26 39 46" id="x"/><path d="M117-194c89-4 53 116 60 194h-32v-121c0-31-8-49-39-48C34-167 62-67 57 0H25l-1-190h30c1 10-1 24 2 32 11-22 29-35 61-36" id="y"/><g id="e"><use transform="matrix(0.05,0,0,0.05,0,0)" xlink:href="#x"/><use transform="matrix(0.05,0,0,0.05,12.950000000000001,0)" xlink:href="#p"/><use transform="matrix(0.05,0,0,0.05,22.950000000000003,0)" xlink:href="#y"/><use transform="matrix(0.05,0,0,0.05,32.95,0)" xlink:href="#t"/><use transform="matrix(0.05,0,0,0.05,37.95,0)" xlink:href="#u"/><use transform="matrix(0.05,0,0,0.05,47.95,0)" xlink:href="#j"/></g><path d="M153-248C145-148 188 4 80 4 36 3 13-21 6-62l32-5c4 25 16 42 43 43 27 0 39-20 39-49v-147H72v-28h81" id="z"/><g id="f"><use transform="matrix(0.05,0,0,0.05,0,0)" xlink:href="#z"/><use transform="matrix(0.05,0,0,0.05,9,0)" xlink:href="#m"/><use transform="matrix(0.05,0,0,0.05,19,0)" xlink:href="#y"/><use transform="matrix(0.05,0,0,0.05,29,0)" xlink:href="#t"/><use transform="matrix(0.05,0,0,0.05,34,0)" xlink:href="#u"/><use transform="matrix(0.05,0,0,0.05,44,0)" xlink:href="#j"/></g><path d="M177-190C167-65 218 103 67 71c-23-6-38-20-44-43l32-5c15 47 100 32 89-28v-30C133-14 115 1 83 1 29 1 15-40 15-95c0-56 16-97 71-98 29-1 48 16 59 35 1-10 0-23 2-32h30zM94-22c36 0 50-32 50-73 0-42-14-75-50-75-39 0-46 34-46 75s6 73 46 73" id="A"/><g id="g"><use transform="matrix(0.05,0,0,0.05,0,0)" xlink:href="#x"/><use transform="matrix(0.05,0,0,0.05,12.950000000000001,0)" xlink:href="#p"/><use transform="matrix(0.05,0,0,0.05,22.950000000000003,0)" xlink:href="#y"/><use transform="matrix(0.05,0,0,0.05,32.95,0)" xlink:href="#t"/><use transform="matrix(0.05,0,0,0.05,37.95,0)" xlink:href="#u"/><use transform="matrix(0.05,0,0,0.05,47.95,0)" xlink:href="#A"/><use transform="matrix(0.05,0,0,0.05,57.95,0)" xlink:href="#i"/><use transform="matrix(0.05,0,0,0.05,67.95,0)" xlink:href="#y"/><use transform="matrix(0.05,0,0,0.05,77.95,0)" xlink:href="#q"/></g></defs></g></svg>